<svg width="3000" height="1889" viewBox="0 0 3000 1889" fill="none" xmlns="http://www.w3.org/2000/svg">
<g clip-path="url(#clip0)">
<rect width="3000" height="1889" fill="#3797A4"/>
<path d="M1665.61 756.5H1685.32V770H1647.97V706.55H1665.61V756.5ZM1718.82 720.68V731.03H1739.07V744.44H1718.82V755.87H1741.77V770H1701.18V706.55H1741.77V720.68H1718.82ZM1807.28 706.55V720.59H1790.36V770H1772.72V720.59H1755.98V706.55H1807.28ZM1827.12 706.55H1844.94L1834.59 731.93H1822.8L1827.12 706.55ZM1886.86 770.63C1879.48 770.63 1873.42 768.89 1868.68 765.41C1863.94 761.87 1861.39 756.83 1861.03 750.29H1879.84C1880.02 752.51 1880.68 754.13 1881.82 755.15C1882.96 756.17 1884.43 756.68 1886.23 756.68C1887.85 756.68 1889.17 756.29 1890.19 755.51C1891.27 754.67 1891.81 753.53 1891.81 752.09C1891.81 750.23 1890.94 748.79 1889.2 747.77C1887.46 746.75 1884.64 745.61 1880.74 744.35C1876.6 742.97 1873.24 741.65 1870.66 740.39C1868.14 739.07 1865.92 737.18 1864 734.72C1862.14 732.2 1861.21 728.93 1861.21 724.91C1861.21 720.83 1862.23 717.35 1864.27 714.47C1866.31 711.53 1869.13 709.31 1872.73 707.81C1876.33 706.31 1880.41 705.56 1884.97 705.56C1892.35 705.56 1898.23 707.3 1902.61 710.78C1907.05 714.2 1909.42 719.03 1909.72 725.27H1890.55C1890.49 723.35 1889.89 721.91 1888.75 720.95C1887.67 719.99 1886.26 719.51 1884.52 719.51C1883.2 719.51 1882.12 719.9 1881.28 720.68C1880.44 721.46 1880.02 722.57 1880.02 724.01C1880.02 725.21 1880.47 726.26 1881.37 727.16C1882.33 728 1883.5 728.75 1884.88 729.41C1886.26 730.01 1888.3 730.79 1891 731.75C1895.02 733.13 1898.32 734.51 1900.9 735.89C1903.54 737.21 1905.79 739.1 1907.65 741.56C1909.57 743.96 1910.53 747.02 1910.53 750.74C1910.53 754.52 1909.57 757.91 1907.65 760.91C1905.79 763.91 1903.06 766.28 1899.46 768.02C1895.92 769.76 1891.72 770.63 1886.86 770.63ZM1951.79 738.14C1951.79 731.9 1953.08 726.35 1955.66 721.49C1958.3 716.57 1962.02 712.76 1966.82 710.06C1971.62 707.3 1977.14 705.92 1983.38 705.92C1991.3 705.92 1997.96 708.05 2003.36 712.31C2008.76 716.51 2012.24 722.24 2013.8 729.5H1994.81C1993.67 727.1 1992.08 725.27 1990.04 724.01C1988.06 722.75 1985.75 722.12 1983.11 722.12C1979.03 722.12 1975.76 723.59 1973.3 726.53C1970.9 729.41 1969.7 733.28 1969.7 738.14C1969.7 743.06 1970.9 746.99 1973.3 749.93C1975.76 752.81 1979.03 754.25 1983.11 754.25C1985.75 754.25 1988.06 753.62 1990.04 752.36C1992.08 751.1 1993.67 749.27 1994.81 746.87H2013.8C2012.24 754.13 2008.76 759.89 2003.36 764.15C1997.96 768.35 1991.3 770.45 1983.38 770.45C1977.14 770.45 1971.62 769.1 1966.82 766.4C1962.02 763.64 1958.3 759.83 1955.66 754.97C1953.08 750.05 1951.79 744.44 1951.79 738.14ZM2087.95 706.55V770H2070.31V744.53H2048.8V770H2031.16V706.55H2048.8V730.4H2070.31V706.55H2087.95ZM2147.18 759.65H2124.68L2121.26 770H2102.72L2125.85 706.55H2146.19L2169.23 770H2150.6L2147.18 759.65ZM2142.77 746.15L2135.93 725.63L2129.18 746.15H2142.77ZM2231.77 706.55V720.59H2214.85V770H2197.21V720.59H2180.47V706.55H2231.77ZM2321.31 706.55V720.59H2304.39V770H2286.75V720.59H2270.01V706.55H2321.31ZM2367.26 770.63C2361.32 770.63 2355.86 769.25 2350.88 766.49C2345.9 763.67 2341.94 759.8 2339 754.88C2336.12 749.9 2334.68 744.29 2334.68 738.05C2334.68 731.81 2336.12 726.23 2339 721.31C2341.94 716.33 2345.9 712.46 2350.88 709.7C2355.86 706.94 2361.32 705.56 2367.26 705.56C2373.26 705.56 2378.72 706.94 2383.64 709.7C2388.62 712.46 2392.55 716.33 2395.43 721.31C2398.31 726.23 2399.75 731.81 2399.75 738.05C2399.75 744.29 2398.31 749.9 2395.43 754.88C2392.55 759.8 2388.62 763.67 2383.64 766.49C2378.66 769.25 2373.2 770.63 2367.26 770.63ZM2367.26 754.25C2371.76 754.25 2375.3 752.78 2377.88 749.84C2380.52 746.9 2381.84 742.97 2381.84 738.05C2381.84 733.01 2380.52 729.05 2377.88 726.17C2375.3 723.23 2371.76 721.76 2367.26 721.76C2362.7 721.76 2359.13 723.23 2356.55 726.17C2353.97 729.05 2352.68 733.01 2352.68 738.05C2352.68 743.03 2353.97 746.99 2356.55 749.93C2359.13 752.81 2362.7 754.25 2367.26 754.25ZM2457.18 727.43C2456.16 725.75 2454.75 724.46 2452.95 723.56C2451.21 722.66 2449.14 722.21 2446.74 722.21C2442.3 722.21 2438.79 723.65 2436.21 726.53C2433.69 729.41 2432.43 733.28 2432.43 738.14C2432.43 743.6 2433.78 747.77 2436.48 750.65C2439.24 753.47 2443.23 754.88 2448.45 754.88C2454.63 754.88 2459.04 752.09 2461.68 746.51H2443.95V733.82H2476.89V750.92C2475.51 754.28 2473.47 757.43 2470.77 760.37C2468.13 763.31 2464.77 765.74 2460.69 767.66C2456.61 769.52 2451.96 770.45 2446.74 770.45C2440.38 770.45 2434.74 769.1 2429.82 766.4C2424.96 763.64 2421.18 759.83 2418.48 754.97C2415.84 750.05 2414.52 744.44 2414.52 738.14C2414.52 731.9 2415.84 726.35 2418.48 721.49C2421.18 716.57 2424.96 712.76 2429.82 710.06C2434.68 707.3 2440.29 705.92 2446.65 705.92C2454.63 705.92 2461.23 707.84 2466.45 711.68C2471.67 715.52 2474.91 720.77 2476.17 727.43H2457.18ZM2511.43 720.68V731.03H2531.68V744.44H2511.43V755.87H2534.38V770H2493.79V706.55H2534.38V720.68H2511.43ZM2599.89 706.55V720.59H2582.97V770H2565.33V720.59H2548.59V706.55H2599.89ZM2672.21 706.55V770H2654.57V744.53H2633.06V770H2615.42V706.55H2633.06V730.4H2654.57V706.55H2672.21ZM2708.94 720.68V731.03H2729.19V744.44H2708.94V755.87H2731.89V770H2691.3V706.55H2731.89V720.68H2708.94ZM2781.74 770L2769.14 746.6H2767.25V770H2749.61V706.55H2777.42C2782.52 706.55 2786.84 707.45 2790.38 709.25C2793.92 710.99 2796.59 713.42 2798.39 716.54C2800.19 719.6 2801.09 723.05 2801.09 726.89C2801.09 731.21 2799.89 735.02 2797.49 738.32C2795.15 741.56 2791.7 743.87 2787.14 745.25L2801.45 770H2781.74ZM2767.25 734.54H2775.98C2778.38 734.54 2780.18 733.97 2781.38 732.83C2782.58 731.69 2783.18 730.04 2783.18 727.88C2783.18 725.84 2782.55 724.25 2781.29 723.11C2780.09 721.91 2778.32 721.31 2775.98 721.31H2767.25V734.54Z" fill="white"/>
<rect x="1644" y="973" width="1162" height="102" rx="49" stroke="white" stroke-width="2"/>
<path d="M1723.21 1011.06V1024.02C1723.21 1025.44 1723.58 1026.53 1724.32 1027.29C1725.06 1028.03 1726.1 1028.4 1727.44 1028.4C1728.8 1028.4 1729.85 1028.03 1730.59 1027.29C1731.33 1026.53 1731.7 1025.44 1731.7 1024.02V1011.06H1735.93V1023.99C1735.93 1025.77 1735.54 1027.28 1734.76 1028.52C1734 1029.74 1732.97 1030.66 1731.67 1031.28C1730.39 1031.9 1728.96 1032.21 1727.38 1032.21C1725.82 1032.21 1724.4 1031.9 1723.12 1031.28C1721.86 1030.66 1720.86 1029.74 1720.12 1028.52C1719.38 1027.28 1719.01 1025.77 1719.01 1023.99V1011.06H1723.21ZM1746.35 1032.27C1744.99 1032.27 1743.77 1032.03 1742.69 1031.55C1741.61 1031.05 1740.75 1030.38 1740.11 1029.54C1739.49 1028.7 1739.15 1027.77 1739.09 1026.75H1743.32C1743.4 1027.39 1743.71 1027.92 1744.25 1028.34C1744.81 1028.76 1745.5 1028.97 1746.32 1028.97C1747.12 1028.97 1747.74 1028.81 1748.18 1028.49C1748.64 1028.17 1748.87 1027.76 1748.87 1027.26C1748.87 1026.72 1748.59 1026.32 1748.03 1026.06C1747.49 1025.78 1746.62 1025.48 1745.42 1025.16C1744.18 1024.86 1743.16 1024.55 1742.36 1024.23C1741.58 1023.91 1740.9 1023.42 1740.32 1022.76C1739.76 1022.1 1739.48 1021.21 1739.48 1020.09C1739.48 1019.17 1739.74 1018.33 1740.26 1017.57C1740.8 1016.81 1741.56 1016.21 1742.54 1015.77C1743.54 1015.33 1744.71 1015.11 1746.05 1015.11C1748.03 1015.11 1749.61 1015.61 1750.79 1016.61C1751.97 1017.59 1752.62 1018.92 1752.74 1020.6H1748.72C1748.66 1019.94 1748.38 1019.42 1747.88 1019.04C1747.4 1018.64 1746.75 1018.44 1745.93 1018.44C1745.17 1018.44 1744.58 1018.58 1744.16 1018.86C1743.76 1019.14 1743.56 1019.53 1743.56 1020.03C1743.56 1020.59 1743.84 1021.02 1744.4 1021.32C1744.96 1021.6 1745.83 1021.89 1747.01 1022.19C1748.21 1022.49 1749.2 1022.8 1749.98 1023.12C1750.76 1023.44 1751.43 1023.94 1751.99 1024.62C1752.57 1025.28 1752.87 1026.16 1752.89 1027.26C1752.89 1028.22 1752.62 1029.08 1752.08 1029.84C1751.56 1030.6 1750.8 1031.2 1749.8 1031.64C1748.82 1032.06 1747.67 1032.27 1746.35 1032.27ZM1771.79 1023.33C1771.79 1023.93 1771.75 1024.47 1771.67 1024.95H1759.52C1759.62 1026.15 1760.04 1027.09 1760.78 1027.77C1761.52 1028.45 1762.43 1028.79 1763.51 1028.79C1765.07 1028.79 1766.18 1028.12 1766.84 1026.78H1771.37C1770.89 1028.38 1769.97 1029.7 1768.61 1030.74C1767.25 1031.76 1765.58 1032.27 1763.6 1032.27C1762 1032.27 1760.56 1031.92 1759.28 1031.22C1758.02 1030.5 1757.03 1029.49 1756.31 1028.19C1755.61 1026.89 1755.26 1025.39 1755.26 1023.69C1755.26 1021.97 1755.61 1020.46 1756.31 1019.16C1757.01 1017.86 1757.99 1016.86 1759.25 1016.16C1760.51 1015.46 1761.96 1015.11 1763.6 1015.11C1765.18 1015.11 1766.59 1015.45 1767.83 1016.13C1769.09 1016.81 1770.06 1017.78 1770.74 1019.04C1771.44 1020.28 1771.79 1021.71 1771.79 1023.33ZM1767.44 1022.13C1767.42 1021.05 1767.03 1020.19 1766.27 1019.55C1765.51 1018.89 1764.58 1018.56 1763.48 1018.56C1762.44 1018.56 1761.56 1018.88 1760.84 1019.52C1760.14 1020.14 1759.71 1021.01 1759.55 1022.13H1767.44ZM1779.05 1017.96C1779.59 1017.08 1780.29 1016.39 1781.15 1015.89C1782.03 1015.39 1783.03 1015.14 1784.15 1015.14V1019.55H1783.04C1781.72 1019.55 1780.72 1019.86 1780.04 1020.48C1779.38 1021.1 1779.05 1022.18 1779.05 1023.72V1032H1774.85V1015.38H1779.05V1017.96ZM1804.89 1032H1800.69L1791.18 1017.63V1032H1786.98V1011.03H1791.18L1800.69 1025.43V1011.03H1804.89V1032ZM1807.96 1023.63C1807.96 1021.95 1808.29 1020.46 1808.95 1019.16C1809.63 1017.86 1810.54 1016.86 1811.68 1016.16C1812.84 1015.46 1814.13 1015.11 1815.55 1015.11C1816.79 1015.11 1817.87 1015.36 1818.79 1015.86C1819.73 1016.36 1820.48 1016.99 1821.04 1017.75V1015.38H1825.27V1032H1821.04V1029.57C1820.5 1030.35 1819.75 1031 1818.79 1031.52C1817.85 1032.02 1816.76 1032.27 1815.52 1032.27C1814.12 1032.27 1812.84 1031.91 1811.68 1031.19C1810.54 1030.47 1809.63 1029.46 1808.95 1028.16C1808.29 1026.84 1807.96 1025.33 1807.96 1023.63ZM1821.04 1023.69C1821.04 1022.67 1820.84 1021.8 1820.44 1021.08C1820.04 1020.34 1819.5 1019.78 1818.82 1019.4C1818.14 1019 1817.41 1018.8 1816.63 1018.8C1815.85 1018.8 1815.13 1018.99 1814.47 1019.37C1813.81 1019.75 1813.27 1020.31 1812.85 1021.05C1812.45 1021.77 1812.25 1022.63 1812.25 1023.63C1812.25 1024.63 1812.45 1025.51 1812.85 1026.27C1813.27 1027.01 1813.81 1027.58 1814.47 1027.98C1815.15 1028.38 1815.87 1028.58 1816.63 1028.58C1817.41 1028.58 1818.14 1028.39 1818.82 1028.01C1819.5 1027.61 1820.04 1027.05 1820.44 1026.33C1820.84 1025.59 1821.04 1024.71 1821.04 1023.69ZM1850.01 1015.14C1852.05 1015.14 1853.69 1015.77 1854.93 1017.03C1856.19 1018.27 1856.82 1020.01 1856.82 1022.25V1032H1852.62V1022.82C1852.62 1021.52 1852.29 1020.53 1851.63 1019.85C1850.97 1019.15 1850.07 1018.8 1848.93 1018.8C1847.79 1018.8 1846.88 1019.15 1846.2 1019.85C1845.54 1020.53 1845.21 1021.52 1845.21 1022.82V1032H1841.01V1022.82C1841.01 1021.52 1840.68 1020.53 1840.02 1019.85C1839.36 1019.15 1838.46 1018.8 1837.32 1018.8C1836.16 1018.8 1835.24 1019.15 1834.56 1019.85C1833.9 1020.53 1833.57 1021.52 1833.57 1022.82V1032H1829.37V1015.38H1833.57V1017.39C1834.11 1016.69 1834.8 1016.14 1835.64 1015.74C1836.5 1015.34 1837.44 1015.14 1838.46 1015.14C1839.76 1015.14 1840.92 1015.42 1841.94 1015.98C1842.96 1016.52 1843.75 1017.3 1844.31 1018.32C1844.85 1017.36 1845.63 1016.59 1846.65 1016.01C1847.69 1015.43 1848.81 1015.14 1850.01 1015.14ZM1876.26 1023.33C1876.26 1023.93 1876.22 1024.47 1876.14 1024.95H1863.99C1864.09 1026.15 1864.51 1027.09 1865.25 1027.77C1865.99 1028.45 1866.9 1028.79 1867.98 1028.79C1869.54 1028.79 1870.65 1028.12 1871.31 1026.78H1875.84C1875.36 1028.38 1874.44 1029.7 1873.08 1030.74C1871.72 1031.76 1870.05 1032.27 1868.07 1032.27C1866.47 1032.27 1865.03 1031.92 1863.75 1031.22C1862.49 1030.5 1861.5 1029.49 1860.78 1028.19C1860.08 1026.89 1859.73 1025.39 1859.73 1023.69C1859.73 1021.97 1860.08 1020.46 1860.78 1019.16C1861.48 1017.86 1862.46 1016.86 1863.72 1016.16C1864.98 1015.46 1866.43 1015.11 1868.07 1015.11C1869.65 1015.11 1871.06 1015.45 1872.3 1016.13C1873.56 1016.81 1874.53 1017.78 1875.21 1019.04C1875.91 1020.28 1876.26 1021.71 1876.26 1023.33ZM1871.91 1022.13C1871.89 1021.05 1871.5 1020.19 1870.74 1019.55C1869.98 1018.89 1869.05 1018.56 1867.95 1018.56C1866.91 1018.56 1866.03 1018.88 1865.31 1019.52C1864.61 1020.14 1864.18 1021.01 1864.02 1022.13H1871.91Z" fill="white"/>
<rect x="1644" y="1163" width="1162" height="102" rx="49" stroke="white" stroke-width="2"/>
<path d="M1741.9 1201.06V1222H1737.7V1208.38L1732.09 1222H1728.91L1723.27 1208.38V1222H1719.07V1201.06H1723.84L1730.5 1216.63L1737.16 1201.06H1741.9ZM1753.43 1222.27C1751.83 1222.27 1750.39 1221.92 1749.11 1221.22C1747.83 1220.5 1746.82 1219.49 1746.08 1218.19C1745.36 1216.89 1745 1215.39 1745 1213.69C1745 1211.99 1745.37 1210.49 1746.11 1209.19C1746.87 1207.89 1747.9 1206.89 1749.2 1206.19C1750.5 1205.47 1751.95 1205.11 1753.55 1205.11C1755.15 1205.11 1756.6 1205.47 1757.9 1206.19C1759.2 1206.89 1760.22 1207.89 1760.96 1209.19C1761.72 1210.49 1762.1 1211.99 1762.1 1213.69C1762.1 1215.39 1761.71 1216.89 1760.93 1218.19C1760.17 1219.49 1759.13 1220.5 1757.81 1221.22C1756.51 1221.92 1755.05 1222.27 1753.43 1222.27ZM1753.43 1218.61C1754.19 1218.61 1754.9 1218.43 1755.56 1218.07C1756.24 1217.69 1756.78 1217.13 1757.18 1216.39C1757.58 1215.65 1757.78 1214.75 1757.78 1213.69C1757.78 1212.11 1757.36 1210.9 1756.52 1210.06C1755.7 1209.2 1754.69 1208.77 1753.49 1208.77C1752.29 1208.77 1751.28 1209.2 1750.46 1210.06C1749.66 1210.9 1749.26 1212.11 1749.26 1213.69C1749.26 1215.27 1749.65 1216.49 1750.43 1217.35C1751.23 1218.19 1752.23 1218.61 1753.43 1218.61ZM1769.38 1207.81C1769.92 1207.01 1770.66 1206.36 1771.6 1205.86C1772.56 1205.36 1773.65 1205.11 1774.87 1205.11C1776.29 1205.11 1777.57 1205.46 1778.71 1206.16C1779.87 1206.86 1780.78 1207.86 1781.44 1209.16C1782.12 1210.44 1782.46 1211.93 1782.46 1213.63C1782.46 1215.33 1782.12 1216.84 1781.44 1218.16C1780.78 1219.46 1779.87 1220.47 1778.71 1221.19C1777.57 1221.91 1776.29 1222.27 1774.87 1222.27C1773.63 1222.27 1772.54 1222.03 1771.6 1221.55C1770.68 1221.05 1769.94 1220.41 1769.38 1219.63V1222H1765.18V1199.8H1769.38V1207.81ZM1778.17 1213.63C1778.17 1212.63 1777.96 1211.77 1777.54 1211.05C1777.14 1210.31 1776.6 1209.75 1775.92 1209.37C1775.26 1208.99 1774.54 1208.8 1773.76 1208.8C1773 1208.8 1772.28 1209 1771.6 1209.4C1770.94 1209.78 1770.4 1210.34 1769.98 1211.08C1769.58 1211.82 1769.38 1212.69 1769.38 1213.69C1769.38 1214.69 1769.58 1215.56 1769.98 1216.3C1770.4 1217.04 1770.94 1217.61 1771.6 1218.01C1772.28 1218.39 1773 1218.58 1773.76 1218.58C1774.54 1218.58 1775.26 1218.38 1775.92 1217.98C1776.6 1217.58 1777.14 1217.01 1777.54 1216.27C1777.96 1215.53 1778.17 1214.65 1778.17 1213.63ZM1787.65 1203.4C1786.91 1203.4 1786.29 1203.17 1785.79 1202.71C1785.31 1202.23 1785.07 1201.64 1785.07 1200.94C1785.07 1200.24 1785.31 1199.66 1785.79 1199.2C1786.29 1198.72 1786.91 1198.48 1787.65 1198.48C1788.39 1198.48 1789 1198.72 1789.48 1199.2C1789.98 1199.66 1790.23 1200.24 1790.23 1200.94C1790.23 1201.64 1789.98 1202.23 1789.48 1202.71C1789 1203.17 1788.39 1203.4 1787.65 1203.4ZM1789.72 1205.38V1222H1785.52V1205.38H1789.72ZM1798.06 1199.8V1222H1793.86V1199.8H1798.06ZM1817.66 1213.33C1817.66 1213.93 1817.62 1214.47 1817.54 1214.95H1805.39C1805.49 1216.15 1805.91 1217.09 1806.65 1217.77C1807.39 1218.45 1808.3 1218.79 1809.38 1218.79C1810.94 1218.79 1812.05 1218.12 1812.71 1216.78H1817.24C1816.76 1218.38 1815.84 1219.7 1814.48 1220.74C1813.12 1221.76 1811.45 1222.27 1809.47 1222.27C1807.87 1222.27 1806.43 1221.92 1805.15 1221.22C1803.89 1220.5 1802.9 1219.49 1802.18 1218.19C1801.48 1216.89 1801.13 1215.39 1801.13 1213.69C1801.13 1211.97 1801.48 1210.46 1802.18 1209.16C1802.88 1207.86 1803.86 1206.86 1805.12 1206.16C1806.38 1205.46 1807.83 1205.11 1809.47 1205.11C1811.05 1205.11 1812.46 1205.45 1813.7 1206.13C1814.96 1206.81 1815.93 1207.78 1816.61 1209.04C1817.31 1210.28 1817.66 1211.71 1817.66 1213.33ZM1813.31 1212.13C1813.29 1211.05 1812.9 1210.19 1812.14 1209.55C1811.38 1208.89 1810.45 1208.56 1809.35 1208.56C1808.31 1208.56 1807.43 1208.88 1806.71 1209.52C1806.01 1210.14 1805.58 1211.01 1805.42 1212.13H1813.31Z" fill="white"/>
<rect x="1655" y="1349" width="448" height="96" rx="48" fill="white"/>
<path d="M1733.16 1404.38H1741V1409H1727.17V1384.43H1733.16V1404.38ZM1749.83 1389.23V1394.19H1757.85V1398.81H1749.83V1404.2H1758.9V1409H1743.85V1384.43H1758.9V1389.23H1749.83ZM1780.46 1384.43V1389.23H1773.95V1409H1767.97V1389.23H1761.46V1384.43H1780.46ZM1784.83 1384.43H1790.95L1787.03 1393.81H1783.01L1784.83 1384.43ZM1803.36 1409.25C1801.56 1409.25 1799.95 1408.95 1798.53 1408.37C1797.11 1407.79 1795.96 1406.92 1795.1 1405.78C1794.26 1404.64 1793.82 1403.26 1793.77 1401.65H1800.14C1800.23 1402.56 1800.55 1403.26 1801.08 1403.75C1801.62 1404.22 1802.32 1404.45 1803.18 1404.45C1804.07 1404.45 1804.77 1404.25 1805.28 1403.86C1805.8 1403.43 1806.05 1402.86 1806.05 1402.14C1806.05 1401.53 1805.84 1401.03 1805.42 1400.63C1805.03 1400.24 1804.53 1399.91 1803.92 1399.65C1803.34 1399.4 1802.5 1399.11 1801.4 1398.78C1799.81 1398.29 1798.52 1397.8 1797.51 1397.31C1796.51 1396.82 1795.65 1396.1 1794.92 1395.14C1794.2 1394.18 1793.84 1392.93 1793.84 1391.39C1793.84 1389.11 1794.67 1387.32 1796.32 1386.04C1797.98 1384.73 1800.14 1384.08 1802.8 1384.08C1805.51 1384.08 1807.69 1384.73 1809.34 1386.04C1811 1387.32 1811.89 1389.12 1812 1391.43H1805.53C1805.48 1390.64 1805.19 1390.02 1804.65 1389.57C1804.12 1389.11 1803.43 1388.87 1802.59 1388.87C1801.87 1388.87 1801.28 1389.07 1800.84 1389.47C1800.4 1389.84 1800.17 1390.39 1800.17 1391.11C1800.17 1391.91 1800.55 1392.53 1801.29 1392.97C1802.04 1393.41 1803.21 1393.89 1804.79 1394.4C1806.38 1394.94 1807.66 1395.45 1808.64 1395.94C1809.65 1396.43 1810.51 1397.15 1811.23 1398.08C1811.96 1399.01 1812.32 1400.21 1812.32 1401.68C1812.32 1403.08 1811.96 1404.36 1811.23 1405.5C1810.53 1406.64 1809.51 1407.55 1808.15 1408.23C1806.8 1408.91 1805.2 1409.25 1803.36 1409.25ZM1838.3 1396.4C1839.72 1396.7 1840.86 1397.41 1841.73 1398.53C1842.59 1399.63 1843.02 1400.89 1843.02 1402.31C1843.02 1404.37 1842.3 1406 1840.85 1407.21C1839.43 1408.4 1837.43 1409 1834.87 1409H1823.42V1384.43H1834.48C1836.98 1384.43 1838.93 1385 1840.33 1386.14C1841.75 1387.29 1842.46 1388.84 1842.46 1390.8C1842.46 1392.25 1842.08 1393.45 1841.31 1394.4C1840.56 1395.36 1839.56 1396.03 1838.3 1396.4ZM1829.41 1394.37H1833.33C1834.31 1394.37 1835.05 1394.16 1835.57 1393.74C1836.1 1393.3 1836.37 1392.65 1836.37 1391.81C1836.37 1390.97 1836.1 1390.33 1835.57 1389.89C1835.05 1389.45 1834.31 1389.23 1833.33 1389.23H1829.41V1394.37ZM1833.82 1404.17C1834.82 1404.17 1835.59 1403.95 1836.13 1403.5C1836.69 1403.04 1836.97 1402.37 1836.97 1401.51C1836.97 1400.65 1836.67 1399.97 1836.09 1399.48C1835.53 1398.99 1834.75 1398.74 1833.75 1398.74H1829.41V1404.17H1833.82ZM1852.48 1389.23V1394.19H1860.49V1398.81H1852.48V1404.2H1861.54V1409H1846.49V1384.43H1861.54V1389.23H1852.48ZM1881.74 1392.2C1881.29 1391.38 1880.65 1390.76 1879.81 1390.34C1879 1389.9 1878.03 1389.68 1876.91 1389.68C1874.97 1389.68 1873.42 1390.32 1872.25 1391.6C1871.09 1392.86 1870.5 1394.56 1870.5 1396.68C1870.5 1398.94 1871.11 1400.72 1872.32 1402C1873.56 1403.26 1875.25 1403.89 1877.4 1403.89C1878.87 1403.89 1880.1 1403.52 1881.11 1402.77C1882.13 1402.02 1882.88 1400.95 1883.35 1399.55H1875.75V1395.14H1888.77V1400.7C1888.33 1402.2 1887.57 1403.59 1886.5 1404.87C1885.45 1406.15 1884.11 1407.19 1882.47 1407.98C1880.84 1408.78 1879 1409.18 1876.94 1409.18C1874.52 1409.18 1872.35 1408.65 1870.43 1407.6C1868.54 1406.53 1867.06 1405.04 1865.99 1403.15C1864.94 1401.26 1864.41 1399.11 1864.41 1396.68C1864.41 1394.25 1864.94 1392.09 1865.99 1390.2C1867.06 1388.29 1868.54 1386.81 1870.43 1385.76C1872.32 1384.69 1874.48 1384.15 1876.91 1384.15C1879.85 1384.15 1882.32 1384.86 1884.33 1386.28C1886.36 1387.71 1887.7 1389.68 1888.35 1392.2H1881.74ZM1898.07 1384.43V1409H1892.09V1384.43H1898.07ZM1924.39 1409H1918.4L1908.39 1393.84V1409H1902.41V1384.43H1908.39L1918.4 1399.65V1384.43H1924.39V1409ZM1935.13 1396.68C1935.13 1394.25 1935.65 1392.09 1936.7 1390.2C1937.75 1388.29 1939.21 1386.81 1941.08 1385.76C1942.97 1384.69 1945.1 1384.15 1947.48 1384.15C1950.4 1384.15 1952.9 1384.92 1954.97 1386.46C1957.05 1388 1958.44 1390.1 1959.14 1392.76H1952.56C1952.07 1391.73 1951.37 1390.95 1950.46 1390.41C1949.57 1389.88 1948.56 1389.61 1947.41 1389.61C1945.57 1389.61 1944.08 1390.25 1942.93 1391.53C1941.79 1392.82 1941.22 1394.53 1941.22 1396.68C1941.22 1398.83 1941.79 1400.54 1942.93 1401.82C1944.08 1403.11 1945.57 1403.75 1947.41 1403.75C1948.56 1403.75 1949.57 1403.48 1950.46 1402.94C1951.37 1402.41 1952.07 1401.63 1952.56 1400.6H1959.14C1958.44 1403.26 1957.05 1405.36 1954.97 1406.9C1952.9 1408.42 1950.4 1409.18 1947.48 1409.18C1945.1 1409.18 1942.97 1408.65 1941.08 1407.6C1939.21 1406.53 1937.75 1405.04 1936.7 1403.15C1935.65 1401.26 1935.13 1399.11 1935.13 1396.68ZM1984.08 1384.43V1409H1978.1V1398.88H1968.79V1409H1962.8V1384.43H1968.79V1394.05H1978.1V1384.43H1984.08ZM2003.7 1404.66H1994.53L1993.06 1409H1986.8L1995.69 1384.43H2002.62L2011.51 1409H2005.17L2003.7 1404.66ZM2002.16 1400.04L1999.12 1391.04L1996.11 1400.04H2002.16ZM2031.89 1384.43V1389.23H2025.38V1409H2019.39V1389.23H2012.88V1384.43H2031.89Z" fill="#3797A4"/>
<rect x="-53" y="-67" width="1500" height="2148" fill="#DFE0DF"/>
<g clip-path="url(#clip1)">
<path opacity="0.1" d="M633.9 827.014C576.33 808.713 515.461 793.37 453.253 794.952C361.799 797.284 273.866 839.147 230.498 901.018C193.839 953.448 188.946 1015.07 172.944 1073.37C153.228 1145.2 115.804 1213.36 75.8627 1280.02C54.4095 1315.83 31.7769 1352.38 28.0473 1391.72C22.9311 1446.35 56.6249 1500.95 109.748 1537.56C162.871 1574.16 233.558 1593.67 304.579 1598.22C342.37 1600.63 381.865 1598.77 415.511 1585.4C451.102 1571.31 477.129 1545.52 512.863 1531.59C545.983 1518.69 584.586 1517.03 621.739 1518.93C669.854 1521.32 717.506 1529.34 763.687 1542.82C815.471 1558.03 863.589 1579.94 915.261 1595.37C966.934 1610.81 1024.69 1619.54 1077.64 1607.13C1127.35 1595.48 1166.79 1566.77 1202.34 1537.68C1259.65 1490.93 1312.93 1439.61 1361.65 1384.26C1393.77 1347.64 1423.68 1308.97 1438.03 1266.18C1465.42 1184.37 1428.72 1091.73 1346.59 1035.39C1278.55 988.689 1187.01 968.07 1097.37 955.546C1015.63 944.008 921.047 942.865 845.913 913.48C774.254 885.378 709.066 850.905 633.9 827.014Z" fill="#8BCDCD"/>
<path opacity="0.1" d="M1367.74 1105.82C1388.08 1105.82 1404.57 1103.6 1404.57 1100.86C1404.57 1098.12 1388.08 1095.9 1367.74 1095.9C1347.4 1095.9 1330.9 1098.12 1330.9 1100.86C1330.9 1103.6 1347.4 1105.82 1367.74 1105.82Z" fill="#8BCDCD"/>
<path opacity="0.1" d="M1226.63 1119.88C1246.98 1119.88 1263.47 1117.66 1263.47 1114.92C1263.47 1112.18 1246.98 1109.96 1226.63 1109.96C1206.29 1109.96 1189.8 1112.18 1189.8 1114.92C1189.8 1117.66 1206.29 1119.88 1226.63 1119.88Z" fill="#8BCDCD"/>
<path opacity="0.1" d="M1060.43 1100.86C1080.77 1100.86 1097.26 1098.64 1097.26 1095.9C1097.26 1093.16 1080.77 1090.94 1060.43 1090.94C1040.09 1090.94 1023.59 1093.16 1023.59 1095.9C1023.59 1098.64 1040.09 1100.86 1060.43 1100.86Z" fill="#8BCDCD"/>
<path opacity="0.1" d="M1283.1 1158.47C1297.57 1158.47 1309.29 1156.89 1309.29 1154.93C1309.29 1152.98 1297.57 1151.4 1283.1 1151.4C1268.64 1151.4 1256.92 1152.98 1256.92 1154.93C1256.92 1156.89 1268.64 1158.47 1283.1 1158.47Z" fill="#8BCDCD"/>
<path opacity="0.1" d="M1136.66 1154.93C1151.12 1154.93 1162.85 1153.35 1162.85 1151.4C1162.85 1149.44 1151.12 1147.86 1136.66 1147.86C1122.2 1147.86 1110.48 1149.44 1110.48 1151.4C1110.48 1153.35 1122.2 1154.93 1136.66 1154.93Z" fill="#8BCDCD"/>
<path d="M1225.84 1113.79C1225.84 1113.79 1277.51 947.436 1217.76 880.807C1173.13 830.959 1122.32 836.971 1099.61 843.092C1093.73 844.629 1088.26 847.404 1083.58 851.223C1078.9 855.043 1075.12 859.817 1072.51 865.214C1064.54 882.043 1066.01 909.362 1122.08 941.253C1215.97 994.654 1221.82 1067.91 1221.82 1067.91L1225.84 1113.79Z" fill="#8BCDCD"/>
<path d="M1107.69 866.685C1107.69 866.685 1259.99 913.464 1225.84 1113.79" stroke="#565987" stroke-miterlimit="10"/>
<path d="M1196.62 883.452C1196.62 883.452 1175.65 897.339 1182.28 918.192" stroke="#565987" stroke-miterlimit="10"/>
<path d="M1122.97 895.804C1122.97 895.804 1135.72 882.998 1151.39 890.059" stroke="#565987" stroke-miterlimit="10"/>
<path d="M1183.17 960.227C1183.17 960.227 1205.68 949.018 1211.49 963.061" stroke="#565987" stroke-miterlimit="10"/>
<path d="M1238.88 983.616C1238.88 983.616 1221.97 982.301 1221.66 990.239" stroke="#565987" stroke-miterlimit="10"/>
<path d="M1227.93 1115.12C1227.93 1115.12 1167.36 994.215 1150.8 996.861C1142.83 998.113 1139.26 1005.75 1137.62 1013.41C1135.58 1023.32 1136.73 1033.61 1140.92 1042.84C1149.51 1062.19 1172.57 1098.93 1227.93 1115.12Z" fill="#8BCDCD"/>
<path d="M1151.25 1019.81C1151.25 1019.81 1214.76 1110.27 1227.03 1114.25" stroke="#565987" stroke-miterlimit="10"/>
<path d="M1145.41 1033.93H1160.24" stroke="#565987" stroke-miterlimit="10"/>
<path d="M1163.17 1067.03L1186.41 1068" stroke="#565987" stroke-miterlimit="10"/>
<path d="M1177.31 1040.56L1174.79 1052.44" stroke="#565987" stroke-miterlimit="10"/>
<path d="M1202.01 1076.74L1201.56 1087.54" stroke="#565987" stroke-miterlimit="10"/>
<path d="M1226.14 1115.12C1226.14 1115.12 1286.71 994.215 1303.27 996.861C1311.24 998.113 1314.81 1005.75 1316.45 1013.41C1318.49 1023.32 1317.33 1033.61 1313.15 1042.84C1304.56 1062.19 1281.5 1098.93 1226.14 1115.12Z" fill="#8BCDCD"/>
<path d="M1302.82 1019.81C1302.82 1019.81 1239.31 1110.27 1227.03 1114.25" stroke="#565987" stroke-miterlimit="10"/>
<path d="M1308.65 1033.93H1293.83" stroke="#565987" stroke-miterlimit="10"/>
<path d="M1290.9 1067.03L1267.66 1068" stroke="#565987" stroke-miterlimit="10"/>
<path d="M1276.76 1040.56L1279.28 1052.44" stroke="#565987" stroke-miterlimit="10"/>
<path d="M1252.04 1076.74L1252.5 1087.54" stroke="#565987" stroke-miterlimit="10"/>
<path d="M1122.24 1143.37C1120.59 1142.04 1119.4 1140.26 1118.8 1138.26C1118.53 1137.25 1118.62 1136.19 1119.06 1135.24C1119.5 1134.29 1120.25 1133.52 1121.2 1133.05C1123.42 1132.22 1125.78 1133.72 1127.58 1135.26C1129.38 1136.79 1131.42 1138.5 1133.76 1138.18C1132.56 1137.11 1131.66 1135.75 1131.15 1134.23C1130.64 1132.71 1130.54 1131.09 1130.86 1129.53C1130.96 1128.88 1131.23 1128.26 1131.66 1127.76C1132.88 1126.47 1135.12 1127.04 1136.58 1128.04C1141.25 1131.28 1142.56 1137.51 1142.59 1143.11C1142.82 1141.03 1142.82 1138.93 1142.59 1136.85C1142.5 1135.82 1142.67 1134.77 1143.08 1133.82C1143.5 1132.86 1144.14 1132.01 1144.97 1131.36C1146.07 1130.76 1147.32 1130.47 1148.58 1130.51C1149.63 1130.37 1150.69 1130.44 1151.7 1130.72C1152.72 1131 1153.66 1131.49 1154.47 1132.16C1156.23 1134.03 1155.77 1137.18 1154.23 1139.25C1152.49 1141.14 1150.43 1142.73 1148.15 1143.94C1146.41 1144.96 1144.92 1146.35 1143.8 1148.02C1143.68 1148.25 1143.57 1148.49 1143.48 1148.74H1130.32C1127.39 1147.31 1124.67 1145.5 1122.24 1143.37Z" fill="#8BCDCD"/>
<path d="M1352.82 1094.66C1351.17 1093.34 1349.97 1091.56 1349.38 1089.56C1349.11 1088.55 1349.21 1087.49 1349.64 1086.54C1350.08 1085.59 1350.84 1084.82 1351.78 1084.36C1354 1083.53 1356.36 1085.03 1358.16 1086.55C1359.96 1088.07 1362.02 1089.81 1364.36 1089.48C1363.15 1088.41 1362.25 1087.05 1361.74 1085.53C1361.22 1084.01 1361.12 1082.39 1361.44 1080.82C1361.54 1080.17 1361.82 1079.57 1362.26 1079.07C1363.48 1077.78 1365.7 1078.33 1367.16 1079.35C1371.83 1082.58 1373.14 1088.74 1373.17 1094.43C1373.41 1092.35 1373.41 1090.25 1373.17 1088.16C1373.08 1087.13 1373.25 1086.08 1373.66 1085.13C1374.08 1084.17 1374.73 1083.32 1375.55 1082.67C1376.66 1082.09 1377.91 1081.8 1379.17 1081.84C1380.2 1081.68 1381.26 1081.74 1382.28 1082.01C1383.29 1082.28 1384.23 1082.75 1385.05 1083.4C1386.83 1085.27 1386.37 1088.41 1384.81 1090.48C1383.08 1092.41 1381.03 1094.03 1378.74 1095.27C1376.99 1096.29 1375.5 1097.68 1374.38 1099.34C1374.25 1099.57 1374.15 1099.81 1374.07 1100.06H1360.9C1357.97 1098.62 1355.26 1096.81 1352.82 1094.66Z" fill="#8BCDCD"/>
<path d="M1275.96 1143.37C1274.32 1142.04 1273.12 1140.26 1272.52 1138.26C1272.26 1137.25 1272.35 1136.19 1272.79 1135.24C1273.23 1134.29 1273.98 1133.52 1274.93 1133.05C1277.14 1132.22 1279.5 1133.72 1281.3 1135.26C1283.11 1136.79 1285.15 1138.5 1287.49 1138.18C1286.28 1137.11 1285.38 1135.75 1284.87 1134.23C1284.36 1132.71 1284.26 1131.09 1284.57 1129.53C1284.68 1128.88 1284.96 1128.27 1285.38 1127.76C1286.61 1126.47 1288.84 1127.04 1290.31 1128.04C1294.98 1131.28 1296.29 1137.51 1296.32 1143.11C1296.57 1141.04 1296.6 1138.94 1296.4 1136.85C1296.31 1135.82 1296.48 1134.77 1296.89 1133.82C1297.3 1132.86 1297.95 1132.01 1298.77 1131.36C1299.88 1130.76 1301.13 1130.47 1302.39 1130.51C1303.43 1130.37 1304.5 1130.44 1305.51 1130.72C1306.52 1131 1307.46 1131.49 1308.27 1132.16C1310.04 1134.03 1309.58 1137.18 1308.03 1139.25C1306.29 1141.14 1304.24 1142.73 1301.96 1143.94C1300.21 1144.96 1298.73 1146.35 1297.61 1148.02C1297.48 1148.25 1297.38 1148.49 1297.29 1148.74H1284.13C1281.17 1147.32 1278.42 1145.51 1275.96 1143.37Z" fill="#8BCDCD"/>
<path d="M1058.04 1044.92C1058.04 1044.92 1053.1 1051.26 1060.32 1060.83C1067.54 1070.39 1073.47 1078.49 1071.08 1084.45C1071.08 1084.45 1060.19 1066.68 1051.33 1066.43C1042.47 1066.18 1048.28 1055.62 1058.04 1044.92Z" fill="#8BCDCD"/>
<path opacity="0.1" d="M1058.04 1044.92C1057.6 1045.53 1057.26 1046.2 1057.02 1046.91C1048.38 1056.88 1043.77 1066.2 1052.08 1066.43C1059.82 1066.65 1069.12 1080.24 1071.33 1083.66C1071.33 1083.92 1071.17 1084.19 1071.08 1084.44C1071.08 1084.44 1060.19 1066.67 1051.33 1066.42C1042.47 1066.17 1048.28 1055.62 1058.04 1044.92Z" fill="black"/>
<path d="M1048.86 1053C1048.86 1055.24 1049.11 1057.04 1049.43 1057.04C1049.75 1057.04 1049.99 1055.24 1049.99 1053C1049.99 1050.76 1049.67 1051.83 1049.37 1051.83C1049.06 1051.83 1048.86 1050.78 1048.86 1053Z" fill="#FFD037"/>
<path d="M1045.7 1055.66C1047.69 1056.74 1049.45 1057.39 1049.59 1057.12C1049.73 1056.85 1048.25 1055.76 1046.26 1054.69C1044.27 1053.63 1045.05 1054.4 1044.89 1054.69C1044.73 1054.99 1043.71 1054.6 1045.7 1055.66Z" fill="#FFD037"/>
<path d="M1084.1 1044.92C1084.1 1044.92 1089.04 1051.26 1081.82 1060.83C1074.6 1070.39 1068.67 1078.49 1071.08 1084.45C1071.08 1084.45 1081.95 1066.68 1090.81 1066.43C1099.67 1066.18 1093.85 1055.62 1084.1 1044.92Z" fill="#8BCDCD"/>
<path opacity="0.1" d="M1084.1 1044.92C1084.53 1045.53 1084.88 1046.2 1085.12 1046.91C1093.76 1056.88 1098.36 1066.2 1090.06 1066.43C1082.31 1066.65 1073.02 1080.24 1070.8 1083.66C1070.88 1083.92 1070.97 1084.18 1071.08 1084.44C1071.08 1084.44 1081.95 1066.67 1090.81 1066.42C1099.67 1066.17 1093.85 1055.62 1084.1 1044.92Z" fill="black"/>
<path d="M1093.28 1053C1093.28 1055.24 1093.02 1057.04 1092.7 1057.04C1092.39 1057.04 1092.15 1055.24 1092.15 1053C1092.15 1050.76 1092.47 1051.83 1092.77 1051.83C1093.07 1051.83 1093.28 1050.78 1093.28 1053Z" fill="#FFD037"/>
<path d="M1096.43 1055.66C1094.44 1056.74 1092.69 1057.39 1092.54 1057.12C1092.4 1056.85 1093.88 1055.76 1095.88 1054.69C1097.87 1053.63 1097.09 1054.4 1097.25 1054.69C1097.41 1054.99 1098.43 1054.6 1096.43 1055.66Z" fill="#FFD037"/>
<path d="M1091.7 1083.62C1091.7 1083.62 1077.91 1083.22 1073.75 1080.3C1069.59 1077.39 1052.52 1073.92 1051.44 1078.58C1050.36 1083.25 1030.72 1101.78 1046.28 1101.91C1061.83 1102.03 1082.49 1099.53 1086.63 1097.04C1090.78 1094.55 1091.7 1083.62 1091.7 1083.62Z" fill="#A8A8A8"/>
<path opacity="0.2" d="M1046.05 1100.28C1061.62 1100.41 1082.25 1097.9 1086.41 1095.41C1089.6 1093.53 1090.82 1086.74 1091.19 1083.61H1091.64C1091.64 1083.61 1090.78 1094.57 1086.62 1097.03C1082.46 1099.48 1061.85 1102.02 1046.26 1101.89C1041.76 1101.89 1040.22 1100.33 1040.3 1097.96C1040.98 1099.39 1042.71 1100.27 1046.05 1100.28Z" fill="black"/>
<path opacity="0.1" d="M179.59 459.61C198.63 459.61 214.065 444.449 214.065 425.747C214.065 407.045 198.63 391.884 179.59 391.884C160.55 391.884 145.115 407.045 145.115 425.747C145.115 444.449 160.55 459.61 179.59 459.61Z" fill="#8BCDCD"/>
<path opacity="0.1" d="M775.864 406.162C794.904 406.162 810.339 391.001 810.339 372.299C810.339 353.597 794.904 338.436 775.864 338.436C756.824 338.436 741.389 353.597 741.389 372.299C741.389 391.001 756.824 406.162 775.864 406.162Z" fill="#8BCDCD"/>
<path opacity="0.1" d="M1322.79 539.939C1341.83 539.939 1357.27 524.778 1357.27 506.076C1357.27 487.374 1341.83 472.213 1322.79 472.213C1303.75 472.213 1288.32 487.374 1288.32 506.076C1288.32 524.778 1303.75 539.939 1322.79 539.939Z" fill="#8BCDCD"/>
<path opacity="0.1" d="M31.7769 792.995C63.6862 792.995 89.5538 767.586 89.5538 736.243C89.5538 704.9 63.6862 679.492 31.7769 679.492C-0.132404 679.492 -26 704.9 -26 736.243C-26 767.586 -0.132404 792.995 31.7769 792.995Z" fill="#8BCDCD"/>
<path opacity="0.1" d="M87.163 1073.23C119.072 1073.23 144.94 1047.82 144.94 1016.48C144.94 985.135 119.072 959.726 87.163 959.726C55.2537 959.726 29.3861 985.135 29.3861 1016.48C29.3861 1047.82 55.2537 1073.23 87.163 1073.23Z" fill="#8BCDCD"/>
<path opacity="0.1" d="M1169.26 826.043C1201.17 826.043 1227.03 800.635 1227.03 769.292C1227.03 737.949 1201.17 712.541 1169.26 712.541C1137.35 712.541 1111.48 737.949 1111.48 769.292C1111.48 800.635 1137.35 826.043 1169.26 826.043Z" fill="#8BCDCD"/>
<path d="M691.485 875.562C689.445 875.75 687.373 875.656 685.349 875.969C681.951 876.633 678.708 877.913 675.786 879.742C661.282 887.852 647.591 898.998 641.582 914.278C641.088 915.217 640.93 916.293 641.136 917.331C641.492 918.187 642.075 918.933 642.825 919.491L648.468 924.532C649.181 925.26 650.031 925.844 650.97 926.255C652.492 926.645 654.097 926.597 655.592 926.114C671.1 922.622 687.581 918.599 698.467 907.202C703.631 901.801 708.396 894.364 715.999 894.161C719.186 894.161 722.167 895.366 725.307 895.726C728.447 896.086 732.224 894.771 732.973 891.765C733.216 890.271 733.04 888.739 732.463 887.335L727.777 872.008C726.502 867.813 713.64 867.593 709.352 868.345C702.818 869.456 698.419 874.936 691.485 875.562Z" fill="#65617D"/>
<path d="M746.696 961.902C746.473 967.147 746.903 972.454 746.027 977.652C745.256 981.75 743.921 985.727 742.058 989.472C739.191 995.494 735.549 1001.13 731.22 1006.24C727.188 1010.94 722.358 1015.35 716.381 1017.2C710.404 1019.04 703.057 1017.71 699.327 1012.77C696.283 1008.74 696.14 1003.37 696.363 998.348C696.905 985.996 698.881 973.472 704.523 962.419C706.946 957.722 710.022 953.245 712.492 948.501C717.656 938.654 720.605 926.975 729.515 920.18C735.104 922.717 741.082 924.33 747.206 924.955C749.581 925.206 756.371 925.362 757.168 928.352C757.71 930.372 753.247 936.024 752.386 938.012C748.984 945.555 747.054 953.659 746.696 961.902Z" fill="#65617D"/>
<path d="M683.516 736.118C685.429 740.909 687.851 745.605 688.298 750.709C688.617 753.84 688.298 756.971 688.298 760.102C688.566 764.392 689.293 768.643 690.465 772.783L699.343 808.478C700.666 813.816 701.989 819.296 701.303 824.744C700.841 828.376 699.502 831.899 699.518 835.546C699.688 838.312 700.136 841.055 700.857 843.734C702.538 852.011 702.078 860.57 699.518 868.626C699.256 869.234 699.163 869.898 699.247 870.552C699.471 871.57 700.475 872.196 701.383 872.681C710.941 877.818 721.36 881.228 732.144 882.748C741.878 860.003 748.678 836.152 752.386 811.75C754.65 796.971 755.749 782.004 758.65 767.335C758.716 766.488 759.083 765.69 759.686 765.081C760.77 764.188 762.412 764.752 763.687 765.347C779.975 773.041 795.645 781.938 810.562 791.961C815.807 785.29 819.495 777.567 821.365 769.34C823.235 761.113 823.242 752.583 821.384 744.353C819.51 737.257 816.837 730.389 813.415 723.876C809.768 715.952 805.223 708.458 799.867 701.535C788.041 686.975 770.7 677.676 752.848 671.367C741.994 667.516 730.822 664.666 719.665 661.754C713.417 660.111 702.945 654.756 696.873 658.921C690.497 663.257 686.258 674.013 683.644 680.838C680.417 689.305 678.661 698.243 678.448 707.281C678.185 717.127 679.908 726.928 683.516 736.118Z" fill="#3F3D56"/>
<path d="M811.646 779.155C808.314 782.725 811.119 788.423 810.482 793.245C810.065 795.422 809.273 797.514 808.139 799.429L792.886 828.846C790.336 833.26 788.427 838.003 787.212 842.936C785.124 853.55 789.411 865.48 783.928 874.857C782.159 877.879 779.418 880.478 778.685 883.891C778.143 886.38 778.685 888.979 778.414 891.499C778.047 894.458 776.437 897.12 775.545 899.969C774.849 902.707 774.353 905.49 774.063 908.298C772.129 920.27 765.746 931.113 756.148 938.732C750.648 943.31 743.585 945.671 736.384 945.339C729.275 944.744 722.215 940 720.764 933.143C720.27 930.81 720.366 928.211 718.884 926.317C716.78 923.609 712.349 923.499 710.325 920.728L718.166 908.047C720.605 904.118 723.091 900.016 723.49 895.429C723.968 889.808 721.211 884.204 722.199 878.646C723.044 873.871 726.534 869.895 727.586 865.167C728.893 859.296 726.279 853.362 724.86 847.507C721.386 833.088 725.275 818.059 729.148 803.672C734.296 784.635 739.572 765.3 749.995 748.47C770.795 759.476 789.921 770.044 811.646 779.155Z" fill="#3F3D56"/>
<path d="M811.837 480.949C813.08 484.268 812.41 487.947 812.171 491.469C811.614 499.297 813.303 507.125 812.921 515.062C812.538 522.999 810.052 530.577 808.33 538.295C803.437 560.322 804.617 583.273 800.186 605.394C794.719 632.792 780.741 658.31 777.983 686.114C777.107 694.944 777.218 704.4 772.293 711.852C743.027 699.198 715.363 683.237 689.86 664.291C695.47 623.414 701.017 582.334 700.268 541.097C699.905 536.126 700.259 531.13 701.319 526.256C702.649 522.162 704.559 518.272 706.994 514.702C713.162 504.855 719.952 495.399 726.725 485.958C731.061 479.915 735.747 473.575 742.664 470.741C749.581 467.908 757.773 469.176 765.312 470.522C774.387 472.15 783.45 473.778 792.503 475.407C798.162 476.424 809.414 474.483 811.837 480.949Z" fill="#8BCDCD"/>
<path d="M593.592 637.582C589.873 633.929 585.818 630.622 581.478 627.704C587.136 620.94 586.021 611.156 587.407 602.498C588.543 596.875 590.268 591.382 592.555 586.107C593.129 584.62 593.942 582.976 595.52 582.584C596.489 582.467 597.472 582.619 598.357 583.023C603.139 584.682 613.116 584.588 616.83 587.625C621.308 591.32 617.212 599.054 615.523 603.672C614.327 606.772 595.966 639.931 593.592 637.582Z" fill="#BE6F72"/>
<path d="M607.474 929.949C609.875 933.766 611.443 938.031 612.08 942.474C612.463 946.92 610.805 951.789 606.948 954.137C603.091 956.485 597.56 955.703 592.97 954.294C583.234 951.183 574.276 946.089 566.681 939.345C559.087 932.601 553.028 924.357 548.9 915.155C547.45 911.867 546.19 908.376 543.624 905.84C541.718 904.194 539.602 902.799 537.329 901.691C531.065 898.216 525.024 893.644 522.123 887.163C519.223 880.681 520.53 872.024 526.538 868.173C528.411 867.11 530.48 866.424 532.626 866.155C534.771 865.886 536.95 866.04 539.034 866.607C543.189 867.766 547.166 869.467 550.86 871.664C557.045 874.967 564.599 877.816 569.987 882.216C574.768 886.082 579.056 891.311 583.136 895.867C587.809 901.109 592.188 906.596 596.253 912.305C597.56 913.981 608.574 928.431 607.474 929.949Z" fill="#65617D"/>
<path d="M490.645 897.088C490.103 904.966 488.687 912.761 486.421 920.337C485.13 924.595 483.425 929.026 479.839 931.734C476.805 933.666 473.368 934.902 469.782 935.35C468.531 935.684 467.224 935.763 465.94 935.585C463.741 935.131 462.179 933.268 460.824 931.499C455.501 924.579 450.321 917.268 448.073 908.877C444.886 896.713 448.073 883.671 453.604 872.306C455.592 867.724 458.491 863.577 462.131 860.11C466.629 856.479 472.032 854.096 477.783 853.206C483.664 852.047 490.884 849.574 491.314 856.603C491.944 870.099 491.72 883.62 490.645 897.088Z" fill="#65617D"/>
<path d="M578.833 602.827C589.83 608.416 602.039 615.524 604.334 627.469C605.753 634.764 603.027 642.232 603.473 649.653C603.872 656.181 606.661 662.49 606.31 669.003C605.938 672.08 605.406 675.137 604.717 678.161C603.776 683.938 604.334 689.825 604.095 695.664C603.569 708.815 599.09 721.465 596.923 734.443C595.388 743.71 595.03 753.128 595.855 762.482C596.381 768.525 597.449 774.537 597.449 780.611C597.449 784.986 597.081 789.353 596.349 793.668C594.213 807.225 589.909 820.365 583.598 832.603C575.932 847.429 577.016 866.56 577.828 883.17C578.184 885.46 577.886 887.801 576.968 889.934C574.959 893.519 569.955 894.035 565.811 893.691C550.443 892.312 536.191 885.223 525.965 873.871C524.473 872.444 523.461 870.603 523.064 868.595C522.713 865.245 525.455 862.49 527.431 859.718C534.157 850.325 532.452 837.597 533.249 826.059C533.83 817.665 535.873 809.431 539.289 801.715C541.266 797.253 543.736 792.854 544.182 788.001C544.597 783.476 543.194 778.999 541.807 774.678L537.026 759.774C529.615 736.619 522.155 713.324 510.935 691.703C503.573 696.408 498.304 703.682 496.192 712.056C492.016 726.803 497.961 743.273 492.271 757.457C491.329 759.423 490.545 761.459 489.928 763.547C489.593 765.348 489.464 767.181 489.545 769.01C489.693 784.27 490.64 799.513 492.382 814.678C492.468 816.974 493.125 819.216 494.295 821.206C495.235 822.537 496.606 823.523 497.61 824.791C500.399 828.345 499.873 833.323 499.204 837.754L496.016 858.701C495.96 859.763 495.601 860.788 494.98 861.66C494.229 862.375 493.291 862.873 492.271 863.1C482.143 866.189 471.466 867.149 460.936 865.918C457.828 865.558 455.007 863.507 452.409 861.785C452.138 858.654 456.106 856.572 456.25 853.456C456.096 851.61 455.222 849.894 453.811 848.666C447.882 842.09 440.805 835.108 440.869 826.325C440.869 824.024 441.427 821.723 441.347 819.421C441.14 813.519 436.996 808.462 435.546 802.779C433.761 795.75 436.135 788.455 437.044 781.269C438.287 771.594 436.821 761.793 435.45 752.134L430.111 716.69C429.49 711.188 428.381 705.751 426.796 700.439C424.786 695.209 422.427 690.116 419.735 685.191C414.635 675.015 410.443 664.431 406.267 653.88C404.94 651.013 404.105 647.95 403.796 644.815C403.557 639.445 406.378 634.373 409.885 630.24C416.452 622.559 425.416 617.221 435.386 615.054C437.053 614.597 438.804 614.528 440.503 614.85C441.931 615.316 443.272 616.009 444.471 616.901C456.792 624.817 470.812 629.822 485.432 631.525C500.051 633.228 514.874 631.583 528.738 626.717C530.332 627.907 533.28 627.39 535.113 626.545C540.23 624.244 544.405 620.408 548.9 617.152C557.268 610.921 568.552 605.003 578.833 602.827Z" fill="#3F3D56"/>
<path d="M248.476 1004.88C249.322 1007.28 250.596 1009.51 252.238 1011.47C258.007 1018.86 266.056 1024.76 269.77 1033.39C270.551 1035.23 271.125 1037.17 271.842 1039.05C274.023 1044.72 277.579 1049.78 282.202 1053.8C285.728 1056.68 289.559 1059.17 293.63 1061.24C300.675 1065.01 308.293 1068.42 316.294 1068.22C317.903 1068.18 319.505 1068 321.076 1067.66C323.566 1067.15 325.967 1066.28 328.2 1065.09C333.348 1062.3 337.763 1056.85 336.743 1051.17C336.537 1050.09 336.189 1049.03 335.707 1048.04C334.862 1046.46 333.886 1044.94 332.791 1043.51C330.097 1039.85 327.324 1036.09 323.387 1033.75C318.956 1031.08 313.378 1030.43 309.393 1027.14C307.821 1025.74 306.462 1024.13 305.36 1022.35C301.749 1016.9 299.058 1010.91 297.391 1004.61C296.18 999.914 295.367 994.763 291.877 991.319C288.386 987.875 283.589 987.092 278.935 986.309C277.362 985.991 275.759 985.838 274.153 985.855C271.874 985.933 269.515 986.575 267.379 985.526C265.243 984.477 264.526 982.99 261.944 983.194C259.889 983.466 257.952 984.295 256.35 985.589C250.293 989.988 246.277 997.816 248.476 1004.88Z" fill="#3F3D56"/>
<path d="M305.105 1012C306.141 1017.31 307.735 1022.96 311.911 1026.42C314.573 1028.67 318.287 1030.08 319.609 1033.26C320.932 1036.44 319.227 1040.43 317.027 1043.34C314.219 1047.02 310.738 1050.16 306.763 1052.59C303.384 1054.65 299.352 1056.21 295.479 1055.3C292.291 1054.57 289.773 1052.31 287.398 1050.14C281.947 1045.17 276.368 1040.02 273.308 1033.37C270.121 1026.36 269.961 1018.23 266.487 1011.33C264.462 1007.3 261.338 1003.78 260.111 999.46C259.561 997.898 259.561 996.2 260.111 994.638C260.706 993.52 261.605 992.587 262.708 991.943C263.811 991.299 265.076 990.969 266.359 990.99C268.925 991.074 271.456 991.604 273.834 992.556C281.03 995.075 288.395 997.1 295.877 998.614C298.858 999.162 300.659 999.147 302.252 1001.98C303.725 1005.16 304.687 1008.54 305.105 1012Z" fill="#FBBEBE"/>
<path d="M323.594 1056.87C322.412 1058.64 321.575 1060.62 321.124 1062.69C320.747 1064.31 320.688 1065.97 320.948 1067.61C323.439 1067.1 325.839 1066.24 328.073 1065.04C333.221 1062.25 337.636 1056.81 336.616 1051.12C336.41 1050.04 336.062 1048.99 335.58 1047.99C334.819 1047.82 334.027 1047.86 333.283 1048.08C332.539 1048.31 331.869 1048.73 331.34 1049.29C328.372 1051.41 325.759 1053.96 323.594 1056.87Z" fill="#FBBEBE"/>
<path d="M266.471 937.918C265.777 939.384 265.571 941.027 265.881 942.615C266.614 945.746 269.881 947.546 272.83 948.971L300.866 962.434C302.811 963.318 304.705 964.306 306.54 965.393C311.321 968.274 315.083 972.344 319.163 976.07C323.243 979.796 327.786 983.288 333.189 984.603C338.583 985.764 344.22 985.038 349.127 982.552C351.772 981.258 354.227 979.62 356.427 977.683C358.332 976.042 360.091 974.246 361.687 972.313C363.058 970.891 364.039 969.152 364.54 967.256C365.066 964.391 363.615 961.573 361.926 959.209C360.953 957.847 359.888 956.549 358.738 955.327C348.107 943.789 330.687 937.808 315.704 935.46C309.743 934.521 304.085 932.329 298.348 930.544C292.61 928.759 286.537 927.413 280.576 928.243C274.615 929.073 268.75 932.438 266.471 937.918Z" fill="#3F3D56"/>
<path opacity="0.1" d="M266.471 937.918C265.777 939.384 265.571 941.027 265.881 942.615C266.614 945.746 269.881 947.546 272.83 948.971L300.866 962.434C302.811 963.318 304.705 964.306 306.54 965.393C311.321 968.274 315.083 972.344 319.163 976.07C323.243 979.796 327.786 983.288 333.189 984.603C338.583 985.764 344.22 985.038 349.127 982.552C351.772 981.258 354.227 979.62 356.427 977.683C358.332 976.042 360.091 974.246 361.687 972.313C363.058 970.891 364.039 969.152 364.54 967.256C365.066 964.391 363.615 961.573 361.926 959.209C360.953 957.847 359.888 956.549 358.738 955.327C348.107 943.789 330.687 937.808 315.704 935.46C309.743 934.521 304.085 932.329 298.348 930.544C292.61 928.759 286.537 927.413 280.576 928.243C274.615 929.073 268.75 932.438 266.471 937.918Z" fill="black"/>
<path d="M336.632 946.513C338.787 948.891 340.561 951.578 341.891 954.481C343.088 956.383 343.515 958.657 343.087 960.853C342.46 962.331 341.455 963.626 340.17 964.611L337.381 967.147C336.538 968.007 335.558 968.726 334.48 969.276C332.954 969.838 331.325 970.078 329.698 969.98C325.953 969.98 321.92 969.98 318.876 967.773C314.716 964.83 313.967 958.74 315.864 954.059C317.761 949.378 321.729 945.84 325.73 942.677C328.981 940.094 334.352 944.149 336.632 946.513Z" fill="#FBBEBE"/>
<path d="M353.654 962.701C353.138 965.298 353.387 967.986 354.371 970.45C355.072 972.798 355.758 975.147 356.443 977.542C356.443 977.542 356.443 977.542 356.443 977.636C358.348 975.995 360.107 974.199 361.703 972.266C363.074 970.844 364.055 969.105 364.556 967.209C365.082 964.344 363.631 961.526 361.942 959.162C360.969 957.8 359.904 956.503 358.754 955.28C358.005 956.235 357.352 957.174 356.81 957.785C355.415 959.185 354.339 960.861 353.654 962.701Z" fill="#FBBEBE"/>
<path d="M280.417 846.02C277.117 859.64 278.52 873.887 280.273 887.789C281.612 898.372 283.11 909.331 279.923 919.523C278.743 923.327 276.878 927.194 277.596 931.123C278.95 938.529 288.035 941.378 295.558 942.771C297.729 943.313 299.984 943.446 302.205 943.162C304.432 942.567 306.5 941.498 308.261 940.031C318.955 932.396 327.076 921.79 331.579 909.581C334.432 901.409 335.341 892.72 336.217 884.126C337.684 869.66 339.166 855.022 337.014 840.65C336.377 836.423 335.42 832.243 335.022 827.985C334.52 820.578 334.938 813.14 336.265 805.832C339.01 787.73 343.166 769.861 348.697 752.384C333.52 754.364 318.092 751.626 304.579 744.557C307.193 745.934 304.197 767.899 303.878 770.983C302.911 780.178 301.222 789.285 298.826 798.224C294.379 814.928 284.449 829.425 280.417 846.02Z" fill="#3F3D56"/>
<path opacity="0.1" d="M280.417 846.02C277.117 859.64 278.52 873.887 280.273 887.789C281.612 898.372 283.11 909.331 279.923 919.523C278.743 923.327 276.878 927.194 277.596 931.123C278.95 938.529 288.035 941.378 295.558 942.771C297.729 943.313 299.984 943.446 302.205 943.162C304.432 942.567 306.5 941.498 308.261 940.031C318.955 932.396 327.076 921.79 331.579 909.581C334.432 901.409 335.341 892.72 336.217 884.126C337.684 869.66 339.166 855.022 337.014 840.65C336.377 836.423 335.42 832.243 335.022 827.985C334.52 820.578 334.938 813.14 336.265 805.832C339.01 787.73 343.166 769.861 348.697 752.384C333.52 754.364 318.092 751.626 304.579 744.557C307.193 745.934 304.197 767.899 303.878 770.983C302.911 780.178 301.222 789.285 298.826 798.224C294.379 814.928 284.449 829.425 280.417 846.02Z" fill="black"/>
<path d="M363.169 766.208C369.545 784.353 368.142 804.173 365.385 823.179C362.627 842.184 358.563 861.19 359.758 880.337C360.221 887.852 361.464 895.57 359.232 902.756C357.992 906.262 356.351 909.618 354.339 912.76L303.48 999.147C302.183 1001.39 300.338 1003.28 298.112 1004.64C295.886 1006.01 293.349 1006.81 290.729 1006.97C285.294 1007.35 279.955 1005.6 274.886 1003.64C271.518 1002.54 268.389 1000.84 265.658 998.614C264.304 997.507 263.243 996.094 262.566 994.497C261.889 992.899 261.615 991.164 261.769 989.44C264.048 974.442 267.475 959.084 270.009 944.039C271.733 933.831 275.492 924.058 281.07 915.28C285.007 909.018 289.852 903.398 293.247 896.885C303.002 878.223 299.623 855.46 292.1 835.828C284.577 816.196 273.372 797.973 267.395 777.903C265.623 772.318 264.61 766.527 264.383 760.682C264.309 754.645 265.448 748.654 267.734 743.05C270.021 737.446 273.41 732.34 277.707 728.024C278.961 726.629 280.542 725.555 282.313 724.893C284.384 724.421 286.541 724.459 288.593 725.003C316.916 730.404 353.813 739.406 363.169 766.208Z" fill="#3F3D56"/>
<path d="M820.332 495.32C821.256 502.178 818.738 509.113 815.152 515.046C801.588 537.277 770.317 547.109 746.138 536.761C736.177 532.487 727.745 525.442 719.489 518.491C716.716 516.142 713.831 513.684 712.429 510.365C709.958 504.495 712.939 497.497 717.8 493.301C722.661 489.105 728.957 487.039 735.221 485.176C755.893 478.851 815.407 458.906 820.332 495.32Z" fill="#FBBEBE"/>
<path d="M808.235 473.559C827.058 488.432 854.456 502.6 875.782 513.622C883.034 517.379 891.083 521.606 893.697 529.277C895.099 533.379 894.637 537.841 894.175 542.162C893.282 550.475 892.358 558.913 889.09 566.631C885.249 575.665 878.459 583.117 873.008 591.32C863.445 605.692 857.835 622.631 846.025 635.328C853.994 661.332 862.712 687.304 865.549 714.294C865.706 715.037 865.622 715.809 865.31 716.502C864.984 716.958 864.559 717.337 864.067 717.613L844.239 730.388C842.077 731.628 840.143 733.215 838.518 735.085C835.011 739.562 835.473 745.856 833.306 751.069C832.117 753.614 830.418 755.896 828.309 757.78C826.2 759.663 823.725 761.108 821.033 762.028C815.615 763.862 809.843 764.462 804.154 763.782C796.912 763.334 789.939 760.922 784.008 756.815C778.956 753.057 775.354 747.782 771.879 742.584C769.305 739.039 767.165 735.208 765.504 731.171C763.384 725.41 763.256 719.132 763.336 712.995C763.389 701.317 764.525 689.668 766.731 678.193C767.655 673.637 768.803 669.144 769.536 664.557C771.002 655.32 770.716 645.895 771.799 636.612C773.28 626.17 775.653 615.869 778.892 605.817C780.664 599.592 782.048 593.265 783.036 586.874C784.901 575.633 788.614 564.784 792.328 553.997L798.703 535.508C800.058 531.516 801.429 527.54 803.039 523.641C806.035 516.362 809.892 509.27 810.912 501.504C812.044 493.035 802.736 482.984 805.876 475.031C806.131 474.154 807.517 472.996 808.235 473.559Z" fill="#3F3D56"/>
<path d="M888.596 524.909C893.011 526.866 895.45 531.532 897.028 536.041C900.585 546.202 901.441 557.087 899.514 567.665C898.892 570.324 898.465 573.024 898.239 575.743C898.272 578.895 898.587 582.038 899.18 585.136C900.773 597.113 899.18 609.277 899.706 621.363C900.247 634.952 903.26 649.308 897.458 661.661C893.601 669.864 886.301 675.97 879.097 681.512C852.276 702.044 822.683 718.82 791.164 731.359C796.599 724.94 796.695 715.281 793.077 707.719C789.459 700.157 782.733 694.475 775.545 690.06C784.694 688.062 793.555 684.954 801.923 680.807C818.626 672.478 832.939 660.283 847.077 648.212C849.162 646.74 850.786 644.722 851.763 642.389C853.197 637.692 849.244 633.23 846.503 629.113C838.199 616.588 840.127 600.228 843.602 585.731C847.475 569.841 853.165 554.013 863.541 541.238C870.012 533.254 878.459 527.117 888.596 524.909Z" fill="#3F3D56"/>
<path d="M789.762 731.75C788.329 734.044 786.469 736.052 784.279 737.668C779.498 740.799 772.931 739.609 767.592 737.386C762.63 735.319 758.051 732.457 754.044 728.917C752.321 727.117 750.286 725.633 748.035 724.533C743.859 722.967 738.026 724.142 735.683 720.369C735.41 719.972 735.276 719.5 735.3 719.022C735.444 717.66 737.261 717.285 738.663 717.206C745.17 716.784 751.486 714.87 757.104 711.617C755.309 710.343 753.774 708.75 752.578 706.921C752.081 706.282 751.812 705.501 751.812 704.698C752.007 703.824 752.496 703.041 753.199 702.474C758.322 697.725 764.769 694.582 771.717 693.444C778.666 692.307 785.802 693.227 792.216 696.087C793.469 696.585 794.567 697.394 795.404 698.435C795.994 699.395 796.389 700.459 796.568 701.566C797.604 705.95 801.349 712.525 799.994 716.956C798.496 722.044 792.838 727.445 789.762 731.75Z" fill="#FBBEBE"/>
<path d="M681.078 712.009C700.905 689.512 709.767 659.907 717.991 631.273L723.872 610.921L738.058 561.903C740.145 554.671 742.233 547.438 743.62 540.064C745.995 527.336 746.218 514.326 746.075 501.395C745.872 496.034 744.622 490.762 742.393 485.864C741.006 482.483 740.337 478.882 739.205 475.391C737.765 470.524 735.612 465.888 732.814 461.63C732.035 460.364 731.062 459.223 729.929 458.248C727.968 456.939 725.746 456.053 723.41 455.649C718.343 454.169 713.092 453.384 707.806 453.317C702.515 453.505 697.064 455.305 693.653 459.25C691.055 462.272 689.86 466.185 687.804 469.583C686.847 470.974 685.979 472.422 685.206 473.919C684.329 476.194 683.845 478.596 683.771 481.027C682.942 490.89 682.236 500.763 681.651 510.647C681.38 515.14 681.141 519.665 681.317 524.174C681.46 527.68 681.843 531.172 682.225 534.663L686.003 568.854C686.879 576.886 686.258 584.4 686.991 592.447C688.776 611.876 684.52 631.304 680.153 650.373C678.065 659.437 675.914 668.627 671.451 676.831C667.514 684.095 661.617 691.469 663.179 699.562C663.721 702.38 665.171 705.011 665.394 707.86C665.285 709.624 665.463 711.395 665.92 713.104C666.571 714.267 667.58 715.197 668.803 715.76C670.027 716.322 671.4 716.489 672.726 716.236C675.882 715.691 678.795 714.217 681.078 712.009Z" fill="#3F3D56"/>
<path d="M683.5 621.974C684.106 626.467 683.644 631.023 683.867 635.547C684.367 641.374 685.434 647.141 687.055 652.768C688.648 659.03 690.688 666.044 696.315 669.52C697.726 670.24 699.075 671.072 700.347 672.009C700.974 672.494 701.435 673.156 701.669 673.906C701.902 674.656 701.897 675.458 701.654 676.204L697.271 675.484C697.768 675.858 698.18 676.33 698.478 676.871C698.777 677.411 698.956 678.007 699.004 678.62C699.052 679.233 698.968 679.85 698.756 680.428C698.545 681.007 698.212 681.536 697.778 681.979C697.345 682.423 696.821 682.771 696.241 683.002C695.66 683.233 695.037 683.341 694.411 683.319C693.786 683.297 693.172 683.146 692.61 682.875C692.048 682.604 691.551 682.219 691.151 681.747C691.317 683.157 691.181 684.586 690.752 685.942C690.53 686.608 690.105 687.19 689.535 687.61C688.965 688.03 688.277 688.268 687.565 688.291C686.738 688.165 685.956 687.842 685.285 687.351L673.842 680.385C670.413 678.571 667.561 675.862 665.601 672.557L660.597 665.152C659.494 663.724 658.618 662.141 657.999 660.455C656.134 654.193 661.346 647.242 658.636 641.34C657.822 639.885 656.867 638.511 655.783 637.238C649.998 629.41 650.364 618.764 651.002 609.058C651.209 605.786 651.815 601.903 654.827 600.479C657.218 599.336 660.087 600.353 662.302 601.778C664.518 603.203 666.478 605.081 668.996 605.927C670.59 606.459 672.343 606.522 673.937 607.085C676.169 607.852 678.241 610.843 679.739 612.612C681.857 615.327 683.16 618.569 683.5 621.974Z" fill="#FBBEBE"/>
<path d="M543.832 481.277C542.478 484.33 540.578 487.119 538.221 489.512C537.037 490.708 535.584 491.614 533.978 492.158C532.373 492.702 530.66 492.868 528.977 492.643C525.439 491.955 522.841 489.09 520.498 486.381C514.377 479.321 508.177 472.166 504.065 463.806C497.785 451.078 496.781 436.55 495.873 422.444C495.65 418.812 495.458 414.961 497.228 411.783C499.475 407.728 504.241 405.818 508.64 404.205L532.946 395.282C534.435 394.589 536.084 394.292 537.727 394.421C541.536 395.047 542.939 399.556 543.975 403.203C545.829 409.758 548.91 415.917 553.06 421.364C558.511 428.503 570.736 438.115 563.755 447.023C555.323 457.7 549.968 469.223 543.832 481.277Z" fill="#BE6F72"/>
<path d="M574.928 440.542C585.574 450.373 589.176 465.684 588.666 480.009C588.156 494.334 584.108 508.299 581.797 522.451C579.486 536.604 579.024 551.712 585.288 564.721C587.439 569.183 590.372 573.316 591.87 578.029C593.126 582.686 593.552 587.522 593.129 592.322C593.103 597.382 592.12 602.394 590.228 607.101C586.834 614.49 579.853 619.625 573.174 624.322C559.547 633.997 545.649 643.829 529.646 648.885C518.808 652.314 507.333 653.441 495.984 654.052C488.301 654.653 480.574 654.438 472.937 653.41C459.579 651.223 447.303 644.84 437.952 635.218C436.323 633.667 434.98 631.85 433.984 629.848C433.01 627.243 432.54 624.482 432.597 621.707C432.215 611.427 432.278 601.147 432.788 590.866C433.081 581.069 434.454 571.332 436.885 561.825C439.929 550.866 445.204 540.596 449.205 529.919C463.135 492.8 461.733 450.561 481.082 415.9C485.258 408.417 492.239 400.542 500.846 401.732C502.501 401.829 504.059 402.533 505.213 403.704C506.202 405.129 506.755 406.802 506.807 408.526C508.863 425.372 511.779 442.655 519.86 457.857C523.048 463.821 527.829 472.902 535.177 474.499C542.525 476.095 546.86 469.207 550.797 464.322C557.714 455.365 565.831 447.366 574.928 440.542Z" fill="#E3E8F4"/>
<path d="M625.883 415.195C628.054 416.348 630.081 417.746 631.923 419.36C636.705 423.806 638.458 430.616 638.426 437.066C638.395 443.516 636.832 449.872 635.876 456.26C633.31 473.481 635.494 491.109 636.514 508.549C636.825 511.365 636.652 514.212 636.004 516.972C635.223 519.602 633.613 521.919 632.577 524.471C629.533 532.017 631.828 540.627 630.043 548.549C628.13 556.987 621.579 564.659 622.807 573.222C623.301 576.573 624.942 579.657 625.644 582.976C626.345 586.295 625.739 590.302 622.823 592.087C619.906 593.872 615.666 592.572 612.192 593.559C610.78 594.071 609.406 594.677 608.079 595.375C602.708 597.754 596.301 596.94 591.009 594.342C585.823 591.561 581.16 587.929 577.223 583.602C571.15 577.496 565.269 570.811 562.607 562.686C558.718 550.913 562.177 538.091 566.4 526.412C570.624 514.733 575.661 502.929 574.912 490.514C574.497 483.563 572.266 476.878 570.927 470.052C569.27 460.595 568.676 450.987 569.158 441.403C569.365 434.389 569.843 427.156 572.919 420.816C575.112 416.586 578.351 412.965 582.339 410.285C586.326 407.604 590.935 405.95 595.743 405.473C606.9 404.283 616.463 409.872 625.883 415.195Z" fill="#3F3D56"/>
<path opacity="0.1" d="M595.743 566.522C595.855 571.531 596.77 576.492 598.453 581.222C601.306 574.835 601.64 567.665 602.023 560.714C603.617 536.776 609.02 514.201 614.774 491.015C610.582 494.146 608.223 501.974 606.215 506.671C598.245 525.61 594.668 546.055 595.743 566.522Z" fill="black"/>
<path d="M488.302 399.728C480.62 401.716 473.957 406.194 466.514 409.121C458.784 412.252 450.464 413.583 442.351 415.509C423.576 419.986 404.721 428.299 393.389 443.689C385.037 455.007 381.578 468.988 375.856 481.81C371.075 492.565 364.699 502.647 361.177 513.841C356.571 528.448 357.097 544.103 358.228 559.352C359.153 571.876 360.555 584.541 366.341 595.641C369.369 601.465 373.545 606.678 376.573 612.502C380.207 619.5 382.12 627.218 385.148 634.42C388.177 641.621 392.624 648.823 399.652 652.58L411.287 645.895C428.644 635.923 446.001 625.935 462.816 615.101C477.48 605.708 492.271 594.921 500.081 579.485C506.998 565.849 507.683 549.911 505.898 534.772C504.113 519.634 500.033 504.823 497.929 489.731C495.249 470.736 495.652 451.444 499.124 432.573C500.718 424.057 504.958 415.258 505.834 406.773C506.807 397.708 494.948 398.006 488.302 399.728Z" fill="#3F3D56"/>
<path d="M416.372 648.604C425.281 656.886 438.096 659.296 449.237 664.259C457.515 668.035 464.968 673.351 471.184 679.915C474.611 683.61 477.926 688.635 476.205 693.332C474.754 697.371 470.307 699.437 466.227 700.94C461.159 702.819 455.501 704.478 450.448 702.584C447.484 701.472 445.093 699.249 442.367 697.668C435.689 693.77 427.274 693.754 420.42 690.154C410.761 685.081 405.948 673.919 396.863 667.891C391.89 664.604 385.021 661.911 384.511 656.04C384.487 653.917 384.945 651.816 385.85 649.888C387.683 645.097 390.806 628.643 397.788 629.081C405.39 629.567 410.714 644.643 416.372 648.604Z" fill="#FBBEBE"/>
<path d="M369.688 575.226C372.605 585.528 379.379 594.31 386.407 602.483C391.46 608.353 397.007 614.741 397.182 622.428C397.341 629.692 392.4 636.377 386.025 640.087C379.65 643.797 372.143 644.987 364.763 645.457C358.86 646.015 352.903 645.608 347.135 644.251C332.567 640.369 322.462 627.891 311.003 618.248C304.197 612.533 296.546 607.555 291.335 600.4C286.123 593.246 283.923 582.976 289.055 575.759C290.907 573.419 293.049 571.315 295.431 569.496C304.135 562.083 311.557 553.333 317.41 543.586C319.769 539.657 322.032 535.399 326.001 533.035C331.691 529.637 338.991 531.187 345.43 532.847C352.427 534.647 372.143 538.17 373.513 546.937C374.071 550.537 369.529 556.142 368.843 560.009C367.971 565.08 368.26 570.278 369.688 575.226Z" fill="#FBBEBE"/>
<path d="M405.725 594.858C407.813 598.575 409.531 602.481 410.857 606.522C415.718 623.117 407.032 640.212 402.888 656.995C397.596 678.49 399.844 700.972 399.589 723.093C399.477 733.206 398.377 744.337 390.966 751.351C389.053 753.136 386.758 754.639 385.467 756.893C384.669 758.545 384.075 760.285 383.698 762.075C382.566 765.943 380.559 769.51 377.827 772.509C375.094 775.508 371.707 777.862 367.918 779.395C364.13 780.927 360.037 781.599 355.947 781.36C351.857 781.12 347.875 779.976 344.298 778.012C338.257 774.709 333.014 768.979 326.096 768.807C323.921 768.91 321.755 769.145 319.609 769.511C312.724 770.185 305.982 767.68 299.527 765.222C297.986 764.744 296.549 763.99 295.287 762.999C294.124 761.95 293.375 760.541 292.307 759.414C288.37 755.249 281.644 755.969 275.97 754.811C271.736 753.88 267.859 751.786 264.792 748.773C261.724 745.76 259.592 741.952 258.645 737.793C257.497 732.408 258.469 726.834 259.426 721.402L263.697 697.199C265.49 688.321 266.73 679.344 267.411 670.318C267.935 660.118 267.044 649.895 264.765 639.931C262.884 631.79 260.079 623.821 259.059 615.524C257.282 600.653 261.264 585.67 270.216 573.551C272.432 570.561 275.332 567.571 279.094 567.289C282.138 567.023 284.991 568.62 287.637 570.154C310.62 583.513 333.763 596.596 357.065 609.402C363.44 612.925 369.959 616.463 377.067 618.201C379.203 618.733 382.263 618.514 382.566 616.385C382.604 615.573 382.387 614.77 381.945 614.083C377.96 606.553 372.19 600.087 367.6 592.917C363.01 585.747 359.471 577.261 360.826 568.933C362.675 557.41 373.577 549.786 382.487 558.819C392.48 569.074 399.174 582.256 405.725 594.858Z" fill="#F86D70"/>
<path d="M334.352 740.971C353.048 742.146 372.158 743.398 389.468 750.443C395.03 752.697 400.927 755.609 406.777 754.216C409.688 753.346 412.396 751.92 414.746 750.02C421.952 744.83 428.761 739.127 435.115 732.956C434.478 729.527 429.744 729.058 426.206 729.089C417.578 729.139 409.067 727.13 401.406 723.234C398.887 721.746 396.216 720.523 393.436 719.586C385.866 717.535 378.151 721.449 370.549 723.359C359.296 726.177 347.438 724.533 335.946 722.874L304.93 718.38C302.045 717.973 298.794 717.645 296.499 719.398C294.964 720.822 293.913 722.675 293.486 724.705C289.693 737.23 291.51 738.279 304.133 739.061L334.352 740.971Z" fill="#FBBEBE"/>
<path opacity="0.1" d="M757.869 523.61C786.037 523.61 808.872 501.18 808.872 473.512C808.872 445.844 786.037 423.415 757.869 423.415C729.701 423.415 706.866 445.844 706.866 473.512C706.866 501.18 729.701 523.61 757.869 523.61Z" fill="black"/>
<path d="M757.503 521.434C785.671 521.434 808.506 499.004 808.506 471.336C808.506 443.668 785.671 421.239 757.503 421.239C729.334 421.239 706.499 443.668 706.499 471.336C706.499 499.004 729.334 521.434 757.503 521.434Z" fill="#FBBEBE"/>
<path d="M800.552 407.728C804.633 410.201 808.904 412.863 811.135 417.027C812.335 419.854 813.248 422.791 813.861 425.794C816.65 435.188 824.077 443.344 824.524 453.129C825.018 463.853 816.825 473.168 807.549 478.788C805.432 480.321 802.879 481.164 800.249 481.199C797.556 481.027 795.229 479.367 792.758 478.303C782.287 473.731 770.572 479.524 759.479 482.185C747.951 484.92 735.856 484.222 724.733 480.182C718.756 477.99 712.955 474.702 709.209 469.614C705.463 464.526 704.125 457.403 707.312 451.939C708.906 449.152 711.552 446.632 711.377 443.454C711.281 441.544 710.133 439.822 709.783 437.943C709.273 434.953 710.867 432.041 712.492 429.489C719.869 417.829 729.19 407.472 740.066 398.851C743.254 396.284 746.935 393.779 751.111 393.591C759.495 393.231 766.699 399.368 775.322 399.399C785.108 399.43 792.137 402.624 800.552 407.728Z" fill="#3F3D56"/>
<path opacity="0.1" d="M569.748 460.753C598.796 460.753 622.344 437.623 622.344 409.09C622.344 380.557 598.796 357.427 569.748 357.427C540.699 357.427 517.151 380.557 517.151 409.09C517.151 437.623 540.699 460.753 569.748 460.753Z" fill="black"/>
<path d="M570.672 459.485C599.72 459.485 623.269 436.355 623.269 407.822C623.269 379.289 599.72 356.158 570.672 356.158C541.623 356.158 518.075 379.289 518.075 407.822C518.075 436.355 541.623 459.485 570.672 459.485Z" fill="#BE6F72"/>
<path d="M598.771 437.004C606.199 441.09 615.363 440.667 623.651 438.804C628.352 437.936 632.808 436.089 636.721 433.387C638.664 432.023 640.266 430.244 641.407 428.182C642.547 426.121 643.196 423.832 643.303 421.489C643.303 416.244 639.797 411.516 639.367 406.272C638.841 399.665 643.224 393.559 643.686 386.922C644.148 380.284 640.817 374.303 637.566 368.605C631.971 358.82 626.154 348.91 617.643 341.427C609.131 333.943 597.337 329.168 586.18 331.689C580.697 332.926 575.613 335.822 570.018 336.385C565.046 336.839 560.137 335.368 555.18 334.742C550.223 334.115 544.66 334.507 541.106 337.873C539.162 339.751 537.918 342.397 535.639 343.775C534.094 344.475 532.495 345.056 530.858 345.513C525.104 347.783 522.474 354.155 520.434 359.884L506.759 398.381C511.333 401.512 516.848 402.937 521.852 405.348C526.857 407.759 531.718 411.61 532.738 416.996C533.519 421.082 532.037 425.779 534.46 429.191C536.675 432.323 541.186 432.855 545.011 432.323C548.836 431.79 552.677 430.491 556.503 431.07C566.066 432.495 569.62 438.256 578.466 431.07C587.312 423.884 590.547 432.463 598.771 437.004Z" fill="#3F3D56"/>
<path opacity="0.1" d="M347.151 571.297C373.559 571.297 394.966 550.269 394.966 524.33C394.966 498.391 373.559 477.364 347.151 477.364C320.743 477.364 299.336 498.391 299.336 524.33C299.336 550.269 320.743 571.297 347.151 571.297Z" fill="black"/>
<path d="M349 568.745C375.408 568.745 396.815 547.717 396.815 521.778C396.815 495.839 375.408 474.812 349 474.812C322.592 474.812 301.185 495.839 301.185 521.778C301.185 547.717 322.592 568.745 349 568.745Z" fill="#FBBEBE"/>
<path d="M385.611 475.861C374.227 467.282 361.436 460.674 347.789 456.322C339.054 453.536 329.555 451.626 320.693 454.193C308.676 457.559 292.594 462.585 285.151 472.463C281.485 477.317 277.771 482.311 276.002 488.119C272.464 499.798 277.5 512.244 277.165 524.424C276.767 538.624 269.1 551.586 260.733 563.171C252.365 574.757 250.676 591.351 245.735 604.721C244.045 609.308 243.503 615.68 247.855 617.981C251.68 620.064 256.302 617.465 259.84 614.96L281.118 599.852C282.772 598.517 284.679 597.517 286.728 596.909C291.111 595.907 295.399 598.6 299.065 601.152L343.692 632.15C344.575 630.381 345.05 628.443 345.086 626.474C345.122 624.504 344.717 622.551 343.9 620.752C348.091 622.021 351.136 625.449 354.817 627.891C358.499 630.334 364.094 631.132 366.771 627.719C369.449 624.306 367.425 619.719 364.444 616.964C361.464 614.208 357.543 612.565 354.626 609.731C348.841 604.079 348.251 595.156 344.601 588.017C341.987 583.007 337.763 578.811 335.915 573.473C332.902 564.753 336.839 555.359 340.696 546.968C345.302 537.011 350.514 526.381 360.316 521.183C363.616 519.43 367.265 518.397 370.644 516.8C379.06 512.839 389.563 503.493 393.675 495.117C397.278 487.68 391.731 480.495 385.611 475.861Z" fill="#3F3D56"/>
<path opacity="0.1" d="M313.234 631.07C317.808 633.934 322.972 635.766 327.467 638.756C331.962 641.747 335.898 646.287 336.026 651.61C336.153 656.698 332.838 661.159 329.651 665.199L290.825 715.249L310.62 720.4C307.432 724.721 306.62 730.232 304.962 735.304C303.304 740.376 300.18 745.652 294.889 746.983C290.107 748.189 285.103 745.715 280.162 745.997C276.512 746.216 273.069 747.907 269.419 748.048C264.717 748.22 260.35 745.793 256.429 743.226C247.695 737.48 239.025 729.245 239.088 718.913C239.295 715.418 240.009 711.97 241.208 708.674C246.93 690.341 252.859 671.57 264.717 656.322C271.093 648.181 278.887 641.308 286.681 634.482C288.453 632.73 290.538 631.313 292.833 630.302C297.933 628.424 303.496 630.741 308.771 632.244C314.047 633.747 320.693 633.966 323.737 629.535" fill="black"/>
<path d="M311.56 627.985C316.135 630.835 321.299 632.682 325.794 635.672C330.288 638.662 334.225 643.203 334.368 648.51C334.512 653.817 331.181 658.075 327.993 662.114L289.151 712.118L308.947 717.269C305.759 721.59 304.946 727.085 303.288 732.173C301.631 737.261 298.507 742.521 293.215 743.852C288.434 745.057 283.429 742.584 278.488 742.866C274.838 743.069 271.396 744.776 267.746 744.901C263.044 745.073 258.677 742.646 254.756 740.079C246.022 734.349 237.351 726.099 237.431 715.782C237.622 712.286 238.33 708.837 239.535 705.543C245.257 687.195 251.186 668.424 263.044 653.191C269.419 645.034 277.229 638.161 285.007 631.273C286.788 629.53 288.871 628.115 291.159 627.093C296.26 625.214 301.822 627.531 307.098 629.05C312.373 630.569 319.02 630.772 322.064 626.342" fill="#F86D70"/>
<g opacity="0.1">
<path opacity="0.1" d="M710.867 459.234C714.612 464.323 720.43 467.626 726.391 469.802C737.51 473.859 749.61 474.557 761.137 471.806C772.293 469.144 783.944 463.352 794.416 467.923C796.886 469.004 799.198 470.647 801.891 470.835C804.526 470.789 807.082 469.941 809.207 468.409C815.662 464.495 821.591 458.796 824.428 452.08C824.428 452.424 824.428 452.769 824.524 453.129C825.018 463.853 816.825 473.168 807.549 478.788C805.432 480.321 802.879 481.164 800.249 481.199C797.556 481.027 795.229 479.367 792.758 478.303C782.287 473.731 770.572 479.524 759.479 482.185C747.951 484.92 735.856 484.222 724.733 480.182C718.756 477.99 712.955 474.702 709.209 469.614C705.463 464.526 704.125 457.403 707.312 451.939L707.551 451.548C708.067 454.318 709.199 456.943 710.867 459.234Z" fill="black"/>
<path opacity="0.1" d="M712.986 433.074C713.114 435.485 711.632 437.505 710.213 439.555C710.016 439.047 709.861 438.523 709.751 437.99C709.273 435.188 710.643 432.464 712.158 430.006C712.592 430.981 712.871 432.016 712.986 433.074Z" fill="black"/>
</g>
<path opacity="0.1" d="M524.164 354.781L510.488 393.262C515.063 396.393 520.577 397.833 525.582 400.229C530.587 402.624 535.448 406.491 536.468 411.876C537.249 415.963 535.767 420.659 538.189 424.088C540.405 427.219 544.915 427.736 548.741 427.219C552.566 426.702 556.407 425.387 560.232 425.966C569.795 427.391 573.35 433.152 582.196 426.045C591.041 418.937 594.245 427.375 602.469 431.916C609.896 436.017 619.061 435.595 627.349 433.716C632.048 432.853 636.505 431.011 640.419 428.315C640.975 427.868 641.507 427.392 642.013 426.89C640.792 429.456 638.954 431.691 636.657 433.403C632.745 436.105 628.288 437.952 623.588 438.82C615.3 440.683 606.055 441.105 598.708 437.019C590.483 432.479 587.105 424.197 578.434 431.148C569.764 438.099 566.002 432.495 556.471 431.148C552.646 430.569 548.82 431.869 544.979 432.401C541.138 432.933 536.643 432.401 534.428 429.27C532.005 425.857 533.488 421.16 532.707 417.074C531.687 411.689 526.825 407.822 521.821 405.426C516.816 403.031 511.301 401.575 506.727 398.46L520.466 359.869C522.06 355.626 523.813 351.039 527.001 348.018C525.896 350.205 524.948 352.464 524.164 354.781Z" fill="black"/>
<g opacity="0.1">
<path opacity="0.1" d="M347.454 622.443C350.976 624.009 355.423 624.244 357.654 621.316C360.157 618.185 358.308 613.332 355.327 610.561C352.347 607.79 348.426 606.162 345.509 603.328C339.724 597.692 339.134 588.768 335.484 581.629C332.87 576.604 328.647 572.408 326.798 567.07C323.785 558.365 327.722 548.956 331.579 540.581C336.185 530.624 341.397 519.994 351.199 514.796C354.499 513.043 358.149 512.009 361.527 510.412C369.943 506.452 380.446 497.09 384.559 488.714C388.017 481.653 383.14 474.796 377.338 470.146C380.16 471.947 382.917 473.841 385.595 475.861C391.731 480.557 397.261 487.681 393.564 495.086C389.452 503.461 378.948 512.808 370.533 516.769C367.154 518.334 363.504 519.399 360.205 521.152C350.402 526.35 345.191 536.98 340.584 546.937C336.711 555.328 332.775 564.721 335.803 573.442C337.652 578.78 341.875 582.976 344.489 587.986C348.187 595.124 348.729 604.048 354.515 609.7C357.431 612.533 361.352 614.162 364.333 616.933C367.313 619.704 369.114 624.494 366.66 627.688C364.205 630.882 358.372 630.224 354.706 627.86C352.235 626.216 349.988 624.056 347.454 622.443Z" fill="black"/>
<path opacity="0.1" d="M250.787 608.557L272.065 593.465C273.718 592.125 275.625 591.119 277.675 590.506C282.058 589.52 286.346 592.213 290.012 594.764L334.639 625.762C335.522 623.991 335.998 622.05 336.034 620.079C336.069 618.107 335.664 616.151 334.847 614.349C338.943 615.602 341.923 618.952 345.478 621.301C344.961 621.07 344.428 620.877 343.884 620.721C344.701 622.52 345.106 624.473 345.07 626.443C345.034 628.412 344.559 630.35 343.676 632.118L299.049 601.121C295.383 598.569 291.08 595.876 286.712 596.878C284.663 597.485 282.756 598.486 281.102 599.821L259.824 614.929C256.286 617.434 251.664 620.032 247.839 617.95C246.792 617.319 245.934 616.428 245.349 615.367C244.764 614.306 244.474 613.113 244.507 611.907C246.765 611.117 248.884 609.987 250.787 608.557Z" fill="black"/>
</g>
<path d="M782.382 710.803C782.382 710.803 691.055 717.989 672.885 705.277L756.435 692.627L782.382 710.803Z" fill="#E3E8F4"/>
<path opacity="0.1" d="M782.382 710.803C782.382 710.803 691.055 717.989 672.885 705.277L756.435 692.627L782.382 710.803Z" fill="black"/>
<path d="M782.382 710.803L756.801 694.897C756.801 694.897 680.488 716.439 659.577 707.547L680.855 678.224L756.467 692.705L782.382 710.803Z" fill="#E3E8F4"/>
<path d="M668.901 499.892C666.08 503.392 663.817 507.293 662.19 511.461C661.457 513.669 661.091 515.97 660.469 518.209C658.72 523.784 656.026 529.029 652.5 533.723C644.642 544.948 634.824 555.782 632.848 569.261C631.892 575.915 632.943 582.678 634.282 589.269C635.007 593.615 636.27 597.858 638.044 601.903C640.068 606.193 643.08 609.966 645.391 614.115C647.502 618.187 649.282 622.417 650.715 626.764C653.44 624.087 655.05 620.502 657.234 617.371C659.417 614.24 662.669 611.422 666.51 611.375C670.941 611.375 674.591 614.976 678.974 615.539C679.658 615.675 680.367 615.609 681.014 615.351C682.608 614.616 682.735 612.502 682.608 610.811C681.349 598.991 674.463 587.328 677.715 575.868C680.711 565.269 691.422 558.647 697.048 549.144C701.128 542.24 702.339 534.099 703.423 526.177C704.778 516.706 706.149 507.156 705.543 497.622C705.24 492.816 701.351 462.444 694.243 465.622C691.772 466.718 689.621 471.367 688.075 473.45L681.699 482.326L668.901 499.892Z" fill="#3F3D56"/>
<path d="M478.133 695.821L426.859 736.823L360.89 725.238L405.31 690.983L478.133 695.821Z" fill="#E3E8F4"/>
<path opacity="0.1" d="M479.982 693.269L428.708 734.271L362.739 722.686L407.159 688.431L479.982 693.269Z" fill="black"/>
<path d="M479.616 691.093L428.342 732.079L362.356 720.51L406.793 686.24L479.616 691.093Z" fill="#E3E8F4"/>
<path opacity="0.1" d="M481.098 686.349L429.808 727.351L363.839 715.766L408.275 681.512L481.098 686.349Z" fill="black"/>
<path d="M480.715 684.173L429.441 725.175L363.472 713.59L407.893 679.336L480.715 684.173Z" fill="#E3E8F4"/>
<path d="M1155.18 1244.41C1156.39 1243.83 1157.73 1243.55 1159.07 1243.59C1160.41 1243.64 1161.73 1244 1162.89 1244.66C1164.06 1245.31 1165.05 1246.24 1165.77 1247.36C1166.49 1248.47 1166.92 1249.74 1167.03 1251.06L1169.88 1287.4L1152.95 1290.4L1144.03 1264.13L1155.18 1244.41Z" fill="#3F3D56"/>
<path d="M562.99 1000.85L303.942 1129.98C300.971 1131.47 298.479 1133.74 296.743 1136.53C295.006 1139.33 294.094 1142.55 294.107 1145.82C294.12 1149.1 295.059 1152.31 296.817 1155.09C298.576 1157.87 301.087 1160.12 304.069 1161.59L861.995 1436.61C871.921 1441.49 882.917 1443.9 894.015 1443.63C905.113 1443.36 915.972 1440.41 925.637 1435.04L1160.63 1304.88C1163.48 1303.29 1165.84 1300.95 1167.44 1298.14C1169.04 1295.32 1169.83 1292.13 1169.72 1288.91C1169.61 1285.69 1168.6 1282.56 1166.81 1279.85C1165.03 1277.15 1162.52 1274.98 1159.57 1273.57L578.912 1000.68C576.422 999.51 573.691 998.917 570.93 998.947C568.17 998.976 565.453 999.629 562.99 1000.85Z" fill="#3F3D56"/>
<path d="M302.205 1107.51L294.092 1113.43L293.454 1141.77C293.403 1143.98 293.986 1146.16 295.136 1148.06C296.286 1149.96 297.957 1151.5 299.957 1152.51L867.414 1438.53C868.702 1439.19 870.139 1439.5 871.587 1439.45C873.035 1439.4 874.445 1438.99 875.683 1438.25C876.92 1437.51 877.943 1436.47 878.652 1435.22C879.362 1433.98 879.734 1432.58 879.734 1431.16V1390L302.205 1107.51Z" fill="#3F3D56"/>
<path d="M562.99 968.008L303.942 1097.12C300.969 1098.6 298.473 1100.87 296.733 1103.66C294.992 1106.46 294.075 1109.67 294.083 1112.95C294.092 1116.22 295.025 1119.43 296.78 1122.22C298.534 1125 301.041 1127.26 304.022 1128.73L861.995 1403.75C871.922 1408.63 882.918 1411.04 894.015 1410.76C905.112 1410.49 915.971 1407.54 925.637 1402.18L1160.63 1272.01C1163.48 1270.41 1165.84 1268.08 1167.44 1265.26C1169.04 1262.45 1169.83 1259.26 1169.72 1256.03C1169.61 1252.81 1168.6 1249.68 1166.81 1246.98C1165.03 1244.27 1162.52 1242.1 1159.57 1240.7L578.912 967.82C576.421 966.651 573.689 966.061 570.929 966.093C568.168 966.126 565.452 966.781 562.99 968.008Z" fill="#E3E8F4"/>
<path d="M616.607 991.444L331.181 1133.8L821.75 1374.74L1116.1 1227.98L616.607 991.444Z" fill="#3F3D56"/>
<path d="M1001.27 1330.93C1017.89 1330.93 1031.37 1323.09 1031.37 1313.42C1031.37 1303.74 1017.89 1295.9 1001.27 1295.9C984.637 1295.9 971.158 1303.74 971.158 1313.42C971.158 1323.09 984.637 1330.93 1001.27 1330.93Z" fill="#3F3D56"/>
<path d="M452.154 1039.63C453.694 1039.63 454.943 1038.41 454.943 1036.89C454.943 1035.38 453.694 1034.15 452.154 1034.15C450.613 1034.15 449.364 1035.38 449.364 1036.89C449.364 1038.41 450.613 1039.63 452.154 1039.63Z" fill="#3F3D56"/>
<path d="M443.802 1061.53C445.65 1061.53 447.149 1060.06 447.149 1058.25C447.149 1056.43 445.65 1054.96 443.802 1054.96C441.953 1054.96 440.455 1056.43 440.455 1058.25C440.455 1060.06 441.953 1061.53 443.802 1061.53Z" fill="#3F3D56"/>
<path d="M456.059 1052.77L489.513 1037.44" stroke="#3F3D56" stroke-miterlimit="10"/>
<path d="M752.42 1124.03L657.979 1177.59C644.257 1185.37 639.555 1202.6 647.478 1216.08C655.4 1229.56 672.946 1234.18 686.668 1226.39L781.109 1172.84C794.831 1165.06 799.532 1147.82 791.61 1134.34C783.688 1120.86 766.142 1116.25 752.42 1124.03Z" fill="#8BCDCD"/>
<path d="M836.893 1166.3L742.452 1219.86C728.73 1227.64 724.028 1244.88 731.951 1258.35C739.873 1271.83 757.419 1276.45 771.141 1268.67L865.582 1215.11C879.304 1207.33 884.005 1190.09 876.083 1176.62C868.16 1163.14 850.614 1158.52 836.893 1166.3Z" fill="#8BCDCD"/>
<path d="M675.916 1075.5L581.476 1129.06C567.754 1136.84 563.052 1154.07 570.975 1167.55C578.897 1181.03 596.443 1185.65 610.165 1177.87L704.606 1124.31C718.327 1116.53 723.029 1099.29 715.107 1085.82C707.184 1072.34 689.638 1067.72 675.916 1075.5Z" fill="#8BCDCD"/>
</g>
</g>
<defs>
<clipPath id="clip0">
<rect width="3000" height="1889" fill="white"/>
</clipPath>
<clipPath id="clip1">
<rect width="1473" height="1282" fill="white" transform="translate(-26 331)"/>
</clipPath>
</defs>
</svg>
