<svg width="70" height="110" viewBox="0 0 70 110" fill="none" xmlns="http://www.w3.org/2000/svg">
<path d="M20.6316 56.42L16.5716 52L20.6316 47.58H24.9316L20.8516 52L24.9316 56.42H20.6316ZM41.5455 40L36.1855 62.74H32.8855L38.2455 40H41.5455ZM44.008 47.58H48.308L52.368 52L48.308 56.42H44.008L48.088 52L44.008 47.58Z" fill="#D8D8D8"/>
<mask id="path-2-outside-1" maskUnits="userSpaceOnUse" x="0" y="0" width="70" height="110" fill="black">
<rect fill="white" width="70" height="110"/>
<path d="M60 5H10C7.23858 5 5 7.23858 5 10V100C5 102.761 7.23858 105 10 105H60C62.7614 105 65 102.761 65 100V10C65 7.23858 62.7614 5 60 5Z"/>
</mask>
<path d="M10 10H60V0H10V10ZM60 10V100H70V10H60ZM60 100H10V110H60V100ZM10 100V10H0V100H10ZM10 100H10H0C0 105.523 4.47715 110 10 110V100ZM60 100V110C65.5229 110 70 105.523 70 100H60ZM60 10H70C70 4.47715 65.5229 0 60 0V10ZM10 0C4.47715 0 0 4.47716 0 10H10V10V0Z" fill="#6E00FF" mask="url(#path-2-outside-1)"/>
</svg>
